<svg width="19" height="19" viewBox="0 0 19 19" fill="none" xmlns="http://www.w3.org/2000/svg">
<path fill-rule="evenodd" clip-rule="evenodd" d="M11.6467 2.02859C11.9622 1.63401 12.3573 1.31041 12.8063 1.07893C13.2553 0.84745 13.7481 0.713297 14.2525 0.685234C14.7569 0.657171 15.2615 0.735828 15.7334 0.916069C16.2053 1.09631 16.6339 1.37408 16.9912 1.73123C17.3484 2.08839 17.6263 2.51689 17.8067 2.98875C17.9871 3.46062 18.0659 3.96522 18.0379 4.46962C18.01 4.97401 17.876 5.46683 17.6446 5.91591C17.4133 6.36498 17.0898 6.76019 16.6953 7.07573L9.46817 12.8557C9.37961 12.927 9.27527 12.976 9.16388 12.9986C9.05246 12.0014 8.56388 11.07 7.85531 10.3614C7.32326 9.82451 6.66734 9.42664 5.94531 9.20288C5.97091 9.13919 6.00555 9.07953 6.04817 9.02573L11.6482 2.02859H11.6467Z" fill="#ED39A2"/>
<path d="M1.79306 10.3614C3.81306 8.34137 6.33877 8.84708 7.85306 10.3614C9.36734 11.8757 9.87306 14.4014 7.85306 16.4228C5.83306 18.4428 2.86449 18.6714 0.277344 17.9371C2.26592 15.9485 -0.408371 12.5614 1.79163 10.3614H1.79306Z" fill="#FE68C3"/>
</svg>
