<svg width="44" height="44" viewBox="0 0 44 44" fill="none" xmlns="http://www.w3.org/2000/svg">
<g clip-path="url(#clip0_2058_416)">
<path fill-rule="evenodd" clip-rule="evenodd" d="M22.1746 1.36133C20.8635 1.36133 19.5648 1.39559 18.2816 1.45476C9.36505 1.85963 1.15234 9.03836 1.15234 18.2477C1.15234 20.4901 1.28315 22.6764 1.93718 25.0122C3.2608 29.7336 7.06039 34.7167 14.0055 35.3147C14.208 36.8189 14.5568 38.1737 15.0893 39.2513C15.7776 40.6528 16.9704 41.911 18.7924 41.911C19.6644 41.911 20.3402 41.4064 20.6922 41.1168C21.0192 40.8459 21.3555 40.5033 21.6327 40.223L21.7978 40.0579C22.0839 39.7577 22.399 39.4865 22.7383 39.2482L22.8505 39.3354C23.0436 39.5004 23.2242 39.6655 23.436 39.8648L23.9966 40.3787C24.4544 40.7867 25.0181 41.2601 25.6534 41.6307C26.2857 42.0044 27.0861 42.3252 27.9986 42.3252C28.9391 42.3252 29.7427 41.9702 30.3718 41.5684C30.9545 41.1794 31.4934 40.7283 31.9788 40.223C32.2186 39.98 32.3992 39.7932 32.555 39.625L32.8758 39.2918C33.0034 39.4413 33.1467 39.6188 33.3118 39.8274L33.3678 39.896C33.6357 40.2292 33.972 40.6496 34.3053 40.986C34.489 41.1666 34.7195 41.3722 34.9904 41.5404C35.3472 41.7744 35.7629 41.9029 36.1895 41.911C37.7872 41.911 39.0579 41.1542 39.9673 39.9925C40.8362 38.8869 41.3812 37.4138 41.7176 35.8192C42.9914 29.7305 43.4243 23.9034 42.9945 18.1293C42.2844 8.6148 35.0839 1.86586 26.0676 1.45476C24.7814 1.39559 23.4827 1.36133 22.1746 1.36133ZM22.5639 39.1236C22.5611 39.1211 22.5579 39.119 22.5546 39.1174L22.5639 39.1236ZM33.3398 38.8713L33.3305 38.8775C33.3334 38.8752 33.3365 38.8731 33.3398 38.8713Z" fill="#EFF6FF"/>
<path fill-rule="evenodd" clip-rule="evenodd" d="M25.0102 18.2199C25.0102 17.7037 24.8051 17.2086 24.4401 16.8436C24.075 16.4785 23.5799 16.2734 23.0637 16.2734C22.5475 16.2734 22.0523 16.4785 21.6873 16.8436C21.3223 17.2086 21.1172 17.7037 21.1172 18.2199V21.6271C21.1172 22.1434 21.3223 22.6385 21.6873 23.0035C22.0523 23.3685 22.5475 23.5736 23.0637 23.5736C23.5799 23.5736 24.075 23.3685 24.4401 23.0035C24.8051 22.6385 25.0102 22.1434 25.0102 21.6271V18.2199ZM35.0386 18.2199C35.0386 17.9643 34.9883 17.7112 34.8904 17.475C34.7926 17.2389 34.6492 17.0243 34.4685 16.8436C34.2877 16.6628 34.0732 16.5194 33.837 16.4216C33.6008 16.3238 33.3477 16.2734 33.0921 16.2734C32.8365 16.2734 32.5834 16.3238 32.3472 16.4216C32.111 16.5194 31.8965 16.6628 31.7157 16.8436C31.535 17.0243 31.3916 17.2389 31.2938 17.475C31.1959 17.7112 31.1456 17.9643 31.1456 18.2199V21.6271C31.1456 21.8827 31.1959 22.1358 31.2938 22.372C31.3916 22.6082 31.535 22.8228 31.7157 23.0035C31.8965 23.1843 32.111 23.3276 32.3472 23.4255C32.5834 23.5233 32.8365 23.5736 33.0921 23.5736C33.3477 23.5736 33.6008 23.5233 33.837 23.4255C34.0732 23.3276 34.2877 23.1843 34.4685 23.0035C34.6492 22.8228 34.7926 22.6082 34.8904 22.372C34.9883 22.1358 35.0386 21.8827 35.0386 21.6271V18.2199Z" fill="#3B82F6"/>
</g>
<defs>
<clipPath id="clip0_2058_416">
<rect width="43.6018" height="43.6018" fill="white" transform="translate(0.351562 0.0449219)"/>
</clipPath>
</defs>
</svg>
