<svg xmlns:xlink="http://www.w3.org/1999/xlink" xmlns="http://www.w3.org/2000/svg" width="1200" height="684" viewBox="0 0 1200 684" fill="none"><script xmlns="" id="argent-x-extension" data-extension-id="dlcobpjiigpikoobohmabehhmhfoodbb"/>
<path d="M255.707 82.2222L191.05 121.712L221.985 172.362L162.522 208.68L200.596 271.019" stroke="white" stroke-opacity="0.03" stroke-width="28.496" stroke-linecap="round" stroke-linejoin="round"/>
<path d="M916.762 9.95361L916.762 -65.8087L1004.46 -65.8087L1004.46 -135.486L1112.4 -135.486" stroke="white" stroke-opacity="0.03" stroke-width="28.496" stroke-linecap="round" stroke-linejoin="round"/>
<path d="M-116 9.95361L-116 -65.8087L-56.6497 -65.8087L-56.6497 -135.486L16.3969 -135.486" stroke="white" stroke-opacity="0.03" stroke-width="28.496" stroke-linecap="round" stroke-linejoin="round"/>
<path d="M652.077 645.744L603.415 687.118L572.179 583.327L519.023 697.056" stroke="white" stroke-opacity="0.03" stroke-width="28.496" stroke-linecap="round" stroke-linejoin="round"/>
<path d="M506.401 -30.8298L447.366 -24.7654L476.06 41.8993L461.51 113.416L436.271 116.009" stroke="white" stroke-opacity="0.03" stroke-width="28.496" stroke-linecap="round" stroke-linejoin="round"/>
<path d="M698.06 625.468L664.11 580.595L705.781 557.132L716.084 502.442L776.2 510.004L818.134 464.064L776.2 420.132L818.134 369.771" stroke="white" stroke-opacity="0.03" stroke-width="28.496" stroke-linecap="round" stroke-linejoin="round"/>
<path d="M555.958 143.664L601.168 164.816L672.454 143.664V233.974L740.305 207.506L808.586 233.974" stroke="white" stroke-opacity="0.03" stroke-width="28.496" stroke-linecap="round" stroke-linejoin="round"/>
<path d="M414.409 711.119L421.533 771.125L470.305 754.521L486.417 818.527L519.063 747.532" stroke="white" stroke-opacity="0.03" stroke-width="28.496" stroke-linecap="round" stroke-linejoin="round"/>
<path d="M109.927 802.551L160.891 777.836L180.1 738.293L126.921 699.715L176.75 631.026" stroke="white" stroke-opacity="0.03" stroke-width="28.496" stroke-linecap="round" stroke-linejoin="round"/>
<path d="M828.6 277.547C893.865 315.227 893.264 314.427 893.264 314.427L899.718 260.665L951.011 277.547L973.218 192.058L1026.76 226.089" stroke="white" stroke-opacity="0.03" stroke-width="28.496" stroke-linecap="round" stroke-linejoin="round"/>
<path d="M380.58 567.597L358.197 485.112L380.58 444.845L454.772 458.906L436.292 390.804L475.04 380.29" stroke="white" stroke-opacity="0.03" stroke-width="28.496" stroke-linecap="round" stroke-linejoin="round"/>
<path d="M428.233 177.824L446.412 227.619L477.155 237.867L486.455 279.749L411.748 322.423" stroke="white" stroke-opacity="0.03" stroke-width="28.496" stroke-linecap="round" stroke-linejoin="round"/>
<path d="M243.598 334.18L304.575 348.588L331.433 234.922L377.018 245.693" stroke="white" stroke-opacity="0.03" stroke-width="28.496" stroke-linecap="round" stroke-linejoin="round"/>
<path d="M957.149 616.923L1029.71 593.166L1024.48 538.726L1053.22 535.966" stroke="white" stroke-opacity="0.03" stroke-width="28.496" stroke-linecap="round" stroke-linejoin="round"/>
<path d="M751.594 599.599C816.858 637.28 833.174 646.7 833.174 646.7L876.834 571.079L901.792 585.489" stroke="white" stroke-opacity="0.03" stroke-width="28.496" stroke-linecap="round" stroke-linejoin="round"/>
<path d="M965.325 104.494L915.382 61.994L820.771 173.174L870.714 215.674" stroke="white" stroke-opacity="0.03" stroke-width="28.496" stroke-linecap="round" stroke-linejoin="round"/>
<path d="M546.718 82.1807L607.328 25.7627L572.179 -11.9974" stroke="white" stroke-opacity="0.03" stroke-width="28.496" stroke-linecap="round" stroke-linejoin="round"/>
<path d="M128.847 391.952L143.629 345.589L189.783 360.305" stroke="white" stroke-opacity="0.03" stroke-width="28.496" stroke-linecap="round" stroke-linejoin="round"/>
<path d="M542.659 398.521L578.732 385.07L619.216 493.641L546.696 499.32L503.169 536.913" stroke="white" stroke-opacity="0.03" stroke-width="28.496" stroke-linecap="round" stroke-linejoin="round"/>
<path d="M1067.27 246.11L1054.2 335.138L1001.15 327.35" stroke="white" stroke-opacity="0.03" stroke-width="28.496" stroke-linecap="round" stroke-linejoin="round"/>
<path d="M733.18 121.184L745.07 79.1005L820.377 100.376" stroke="white" stroke-opacity="0.03" stroke-width="28.496" stroke-linecap="round" stroke-linejoin="round"/>
<path d="M728.502 -98.0482L736.954 -113.2L787.97 -84.7412L729.397 20.2578" stroke="white" stroke-opacity="0.03" stroke-width="28.496" stroke-linecap="round" stroke-linejoin="round"/>
<path d="M706.701 442.84L688.735 453.397L643.967 377.208L677.614 328.069L733.349 362.168L784.693 307.848" stroke="white" stroke-opacity="0.03" stroke-width="28.496" stroke-linecap="round" stroke-linejoin="round"/>
<path d="M3.79923 53.3414L85.9513 106.907L141.888 60.8654L165.83 -15.6006L206.185 10.7123" stroke="white" stroke-opacity="0.03" stroke-width="28.496" stroke-linecap="round" stroke-linejoin="round"/>
<path d="M1099.8 53.3414L1181.95 106.907L1261.83 -15.6006L1302.19 10.7123" stroke="white" stroke-opacity="0.03" stroke-width="28.496" stroke-linecap="round" stroke-linejoin="round"/>
<path d="M270.123 -7.1517L341.844 37.9777L381.933 -25.7337L354.993 -42.6859" stroke="white" stroke-opacity="0.03" stroke-width="28.496" stroke-linecap="round" stroke-linejoin="round"/>
<path d="M31.6314 549.571L107.42 544.693L159.927 575.162L206.443 544.693" stroke="white" stroke-opacity="0.03" stroke-width="28.496" stroke-linecap="round" stroke-linejoin="round"/>
<path d="M45.5497 242.461L82.281 217.506L117.321 269.081" stroke="white" stroke-opacity="0.03" stroke-width="28.496" stroke-linecap="round" stroke-linejoin="round"/>
<path d="M529.982 244.565L593.609 209.058L619.565 255.571" stroke="white" stroke-opacity="0.03" stroke-width="28.496" stroke-linecap="round" stroke-linejoin="round"/>
<path d="M963.286 807.81L946.374 703.058L1013.67 692.192" stroke="white" stroke-opacity="0.03" stroke-width="28.496" stroke-linecap="round" stroke-linejoin="round"/>
<path d="M899.517 518.281L870.288 394.802L947.305 376.571" stroke="white" stroke-opacity="0.03" stroke-width="28.496" stroke-linecap="round" stroke-linejoin="round"/>
<path d="M284.669 532.952L272.641 625.42L375.794 638.837" stroke="white" stroke-opacity="0.03" stroke-width="28.496" stroke-linecap="round" stroke-linejoin="round"/>
<path d="M-15.1685 462.057H41.3852V368.02H3.9868" stroke="white" stroke-opacity="0.03" stroke-width="28.496" stroke-linecap="round" stroke-linejoin="round"/>
<path d="M1080.83 462.057H1137.39V368.02H1099.99" stroke="white" stroke-opacity="0.03" stroke-width="28.496" stroke-linecap="round" stroke-linejoin="round"/>
<path d="M171.017 437.21L229.404 437.21L272.367 472.411L195.812 497.4" stroke="white" stroke-opacity="0.03" stroke-width="28.496" stroke-linecap="round" stroke-linejoin="round"/>
<path d="M1072.37 655.315L1156.31 681.228L1145.81 715.231" stroke="white" stroke-opacity="0.03" stroke-width="28.496" stroke-linecap="round" stroke-linejoin="round"/>
<path d="M-23.6321 655.315L60.3065 681.228L49.8095 715.231" stroke="white" stroke-opacity="0.03" stroke-width="28.496" stroke-linecap="round" stroke-linejoin="round"/>
<path d="M992.385 9.90381L1052.01 22.9968L1060.78 -16.9327" stroke="white" stroke-opacity="0.03" stroke-width="28.496" stroke-linecap="round" stroke-linejoin="round"/>
<path d="M743.812 748.764L794.47 697.07L865.073 766.259L844.662 787.087" stroke="white" stroke-opacity="0.03" stroke-width="28.496" stroke-linecap="round" stroke-linejoin="round"/>
<path d="M359.886 139.723L310.344 114.877" stroke="white" stroke-opacity="0.03" stroke-width="28.496" stroke-linecap="round" stroke-linejoin="round"/>
<path d="M834.122 -34.1904L850.891 28.8046" stroke="white" stroke-opacity="0.03" stroke-width="28.496" stroke-linecap="round" stroke-linejoin="round"/>
<path d="M1039.95 104.511L1059.13 151.449" stroke="white" stroke-opacity="0.03" stroke-width="28.496" stroke-linecap="round" stroke-linejoin="round"/>
<path d="M445.919 557.627L466.852 667.447" stroke="white" stroke-opacity="0.03" stroke-width="28.496" stroke-linecap="round" stroke-linejoin="round"/>
<path d="M54.4275 612.534L89.3899 612.534" stroke="white" stroke-opacity="0.03" stroke-width="28.496" stroke-linecap="round" stroke-linejoin="round"/>
<path d="M217.732 691.338L225.404 668.102" stroke="white" stroke-opacity="0.03" stroke-width="28.496" stroke-linecap="round" stroke-linejoin="round"/>
<path d="M100.313 457.686L113.429 490.095" stroke="white" stroke-opacity="0.03" stroke-width="28.496" stroke-linecap="round" stroke-linejoin="round"/>
<path d="M271.971 209.104L261.352 242.414" stroke="white" stroke-opacity="0.03" stroke-width="28.496" stroke-linecap="round" stroke-linejoin="round"/>
<path d="M666.422 54.8953L655.803 88.2061" stroke="white" stroke-opacity="0.03" stroke-width="28.496" stroke-linecap="round" stroke-linejoin="round"/>
<path d="M485.594 171.506H497.54" stroke="white" stroke-opacity="0.03" stroke-width="28.496" stroke-linecap="round" stroke-linejoin="round"/>
<path d="M717.727 283.186L727.341 276.095" stroke="white" stroke-opacity="0.03" stroke-width="28.496" stroke-linecap="round" stroke-linejoin="round"/>
<path d="M922.67 152.444L918.843 180.931" stroke="white" stroke-opacity="0.03" stroke-width="28.496" stroke-linecap="round" stroke-linejoin="round"/>
<path d="M603.962 557.627H615.909" stroke="white" stroke-opacity="0.03" stroke-width="28.496" stroke-linecap="round" stroke-linejoin="round"/>
<path d="M506.747 460.958L506.637 436.298" stroke="white" stroke-opacity="0.03" stroke-width="28.496" stroke-linecap="round" stroke-linejoin="round"/>
<path d="M808.367 565.737L825.486 547.987" stroke="white" stroke-opacity="0.03" stroke-width="28.496" stroke-linecap="round" stroke-linejoin="round"/>
<path d="M42.4812 307.081H54.4276" stroke="white" stroke-opacity="0.03" stroke-width="28.496" stroke-linecap="round" stroke-linejoin="round"/>
<path d="M380.091 76.792L385.816 66.3065" stroke="white" stroke-opacity="0.03" stroke-width="28.496" stroke-linecap="round" stroke-linejoin="round"/>
<path d="M128.846 171.506L63.6338 154.837" stroke="white" stroke-opacity="0.03" stroke-width="28.496" stroke-linecap="round" stroke-linejoin="round"/>
<path d="M314.006 418.434L365.431 366.615" stroke="white" stroke-opacity="0.03" stroke-width="28.496" stroke-linecap="round" stroke-linejoin="round"/>
<path d="M515.954 328.124L597.989 319.684" stroke="white" stroke-opacity="0.03" stroke-width="28.496" stroke-linecap="round" stroke-linejoin="round"/>
<path d="M974.191 488.908L1021.43 417.887" stroke="white" stroke-opacity="0.03" stroke-width="28.496" stroke-linecap="round" stroke-linejoin="round"/>
<path d="M887.059 690.461L899.6 657.826" stroke="white" stroke-opacity="0.03" stroke-width="28.496" stroke-linecap="round" stroke-linejoin="round"/>
<path d="M705.625 698.204L671.349 705.102" stroke="white" stroke-opacity="0.03" stroke-width="28.496" stroke-linecap="round" stroke-linejoin="round"/>
</svg>