<svg width="12" height="21" viewBox="0 0 12 21" fill="none" xmlns="http://www.w3.org/2000/svg">
<path fill-rule="evenodd" clip-rule="evenodd" d="M6.5022 0.502275C6.95468 0.502275 7.38864 0.682024 7.70859 1.00198C8.02855 1.32193 8.2083 1.75589 8.2083 2.20837V3.47771C9.32857 3.77492 10.3494 4.36541 11.1655 5.18835L11.1928 5.2202L11.2042 5.23157L11.2087 5.23612L11.211 5.2384L9.94169 6.38035L11.2133 5.24295C11.5023 5.58007 11.6485 6.01659 11.6208 6.45977C11.5931 6.90295 11.3937 7.31787 11.065 7.61639C10.7363 7.91491 10.3041 8.07351 9.86031 8.05849C9.41652 8.04346 8.99607 7.85601 8.68828 7.53594L8.6769 7.52229C8.49908 7.35649 8.30294 7.21148 8.09228 7.09008C7.57144 6.78078 6.9671 6.64162 6.36344 6.69199C5.53996 6.76251 5.08045 7.03321 4.84387 7.26752C4.74016 7.36475 4.65725 7.48202 4.60016 7.61222C4.54307 7.74243 4.513 7.88286 4.51175 8.02502C4.51175 8.29117 4.56635 8.38444 4.57545 8.40264C4.58682 8.42084 4.62322 8.47543 4.76198 8.55505C5.1305 8.76433 5.70147 8.88717 6.68418 9.06915L6.782 9.08735C7.59183 9.23521 8.75197 9.45132 9.69146 10.0018C10.2238 10.3157 10.7379 10.7616 11.1109 11.4008C11.484 12.0423 11.6478 12.768 11.6478 13.546C11.6478 14.7493 10.9972 15.6934 10.2602 16.3144C9.67781 16.808 8.96353 17.1742 8.2083 17.4131V18.7939C8.2083 19.2464 8.02855 19.6803 7.70859 20.0003C7.38864 20.3203 6.95468 20.5 6.5022 20.5C6.04971 20.5 5.61576 20.3203 5.29581 20.0003C4.97585 19.6803 4.7961 19.2464 4.7961 18.7939V17.6611C3.46807 17.4587 2.22948 16.8683 1.23605 15.9641C1.06723 15.8138 0.929927 15.6316 0.832125 15.4279C0.734323 15.2241 0.677966 15.003 0.666327 14.7773C0.654688 14.5517 0.687999 14.3259 0.764325 14.1132C0.840651 13.9005 0.958472 13.7051 1.11095 13.5383C1.26342 13.3715 1.44751 13.2367 1.65252 13.1417C1.85754 13.0466 2.0794 12.9932 2.30521 12.9846C2.53103 12.976 2.7563 13.0124 2.96795 13.0915C3.1796 13.1707 3.37342 13.2912 3.53814 13.4459C4.45261 14.2807 5.73787 14.4923 6.85479 14.2466C7.29216 14.1635 7.70417 13.9797 8.05816 13.7097C8.12898 13.6553 8.18914 13.5882 8.23559 13.5118C8.23104 13.2502 8.17872 13.1456 8.16052 13.116C8.14233 13.0842 8.0991 13.025 7.96262 12.9454C7.6032 12.7338 7.0345 12.6042 6.06316 12.4222L5.92668 12.3995C5.1305 12.2516 3.99537 12.0423 3.07863 11.5214C2.48972 11.1987 1.99561 10.7273 1.64551 10.1542C1.27233 9.50774 1.0835 8.77132 1.09956 8.02502C1.09956 5.93221 2.50993 4.16242 4.7961 3.52093V2.2061C4.7961 1.75361 4.97585 1.31966 5.29581 0.999705C5.61576 0.679749 6.04971 0.5 6.5022 0.5V0.502275Z" fill="#22C55E"/>
</svg>
