<svg width="4" height="15" viewBox="0 0 4 15" fill="none" xmlns="http://www.w3.org/2000/svg">
<path fill-rule="evenodd" clip-rule="evenodd" d="M2.15584 1.00678C2.01927 0.922121 1.85827 0.873235 1.68583 0.873235C1.19273 0.873235 0.792969 1.27298 0.792969 1.76609C0.792969 2.51875 1.40313 3.12891 2.15584 3.12891C2.90841 3.12891 3.51855 2.51875 3.51855 1.76609C3.51855 1.27298 3.11884 0.873235 2.6257 0.873235C2.45327 0.873235 2.29227 0.922121 2.15584 1.00678Z" fill="#A1A1AA"/>
<path fill-rule="evenodd" clip-rule="evenodd" d="M2.15584 2.52466C2.01927 2.60933 1.85827 2.6582 1.68583 2.6582C1.19273 2.6582 0.792969 2.25846 0.792969 1.76535C0.792969 1.01269 1.40313 0.402546 2.15584 0.402546C2.90841 0.402546 3.51855 1.01269 3.51855 1.76535C3.51855 2.25846 3.11884 2.6582 2.6257 2.6582C2.45327 2.6582 2.29227 2.60933 2.15584 2.52466Z" fill="#A1A1AA"/>
<path fill-rule="evenodd" clip-rule="evenodd" d="M2.15584 6.74117C2.01927 6.6565 1.85827 6.60762 1.68583 6.60762C1.19273 6.60762 0.792969 7.00737 0.792969 7.50048C0.792969 8.25314 1.40313 8.86328 2.15584 8.86328C2.90841 8.86328 3.51855 8.25314 3.51855 7.50048C3.51855 7.00737 3.11884 6.60762 2.6257 6.60762C2.45327 6.60762 2.29227 6.6565 2.15584 6.74117Z" fill="#A1A1AA"/>
<path fill-rule="evenodd" clip-rule="evenodd" d="M2.15584 8.26099C2.01927 8.34566 1.85827 8.39453 1.68583 8.39453C1.19273 8.39453 0.792969 7.99479 0.792969 7.50167C0.792969 6.74902 1.40313 6.13887 2.15584 6.13887C2.90841 6.13887 3.51855 6.74902 3.51855 7.50167C3.51855 7.99479 3.11884 8.39453 2.6257 8.39453C2.45327 8.39453 2.29227 8.34566 2.15584 8.26099Z" fill="#A1A1AA"/>
<path fill-rule="evenodd" clip-rule="evenodd" d="M2.15584 12.4755C2.01927 12.3909 1.85827 12.342 1.68583 12.342C1.19273 12.342 0.792969 12.7417 0.792969 13.2348C0.792969 13.9875 1.40313 14.5977 2.15584 14.5977C2.90841 14.5977 3.51855 13.9875 3.51855 13.2348C3.51855 12.7417 3.11884 12.342 2.6257 12.342C2.45327 12.342 2.29227 12.3909 2.15584 12.4755Z" fill="#A1A1AA"/>
<path fill-rule="evenodd" clip-rule="evenodd" d="M2.15584 13.9934C2.01927 14.0781 1.85827 14.127 1.68583 14.127C1.19273 14.127 0.792969 13.7272 0.792969 13.2341C0.792969 12.4814 1.40313 11.8713 2.15584 11.8713C2.90841 11.8713 3.51855 12.4814 3.51855 13.2341C3.51855 13.7272 3.11884 14.127 2.6257 14.127C2.45327 14.127 2.29227 14.0781 2.15584 13.9934Z" fill="#A1A1AA"/>
</svg>
