<svg width="20" height="21" viewBox="0 0 20 21" fill="none" xmlns="http://www.w3.org/2000/svg">
<path fill-rule="evenodd" clip-rule="evenodd" d="M6.93192 6.21596C6.93192 5.9318 6.81904 5.65928 6.61811 5.45835C6.41717 5.25741 6.14465 5.14453 5.86049 5.14453C5.57633 5.14453 5.30381 5.25741 5.10288 5.45835C4.90194 5.65928 4.78906 5.9318 4.78906 6.21596V7.64453C4.78906 7.92869 4.90194 8.20121 5.10288 8.40215C5.30381 8.60308 5.57633 8.71596 5.86049 8.71596C6.14465 8.71596 6.41717 8.60308 6.61811 8.40215C6.81904 8.20121 6.93192 7.92869 6.93192 7.64453V6.21596ZM15.5033 6.21596C15.5033 5.9318 15.3905 5.65928 15.1895 5.45835C14.9886 5.25741 14.7161 5.14453 14.4319 5.14453C14.1478 5.14453 13.8752 5.25741 13.6743 5.45835C13.4734 5.65928 13.3605 5.9318 13.3605 6.21596V7.64453C13.3605 7.92869 13.4734 8.20121 13.6743 8.40215C13.8752 8.60308 14.1478 8.71596 14.4319 8.71596C14.7161 8.71596 14.9886 8.60308 15.1895 8.40215C15.3905 8.20121 15.5033 7.92869 15.5033 7.64453V6.21596ZM10.1462 7.28739C10.4304 7.28739 10.7029 7.40027 10.9038 7.6012C11.1048 7.80213 11.2176 8.07466 11.2176 8.35882V10.1445C11.2176 10.8076 10.9542 11.4435 10.4854 11.9123C10.0166 12.3811 9.38068 12.6445 8.71763 12.6445H8.51335C8.22919 12.6445 7.95667 12.5316 7.75573 12.3307C7.5548 12.1298 7.44192 11.8573 7.44192 11.5731C7.44192 11.2889 7.5548 11.0164 7.75573 10.8155C7.95667 10.6146 8.22919 10.5017 8.51335 10.5017H8.71906C8.81378 10.5017 8.90462 10.464 8.9716 10.3971C9.03858 10.3301 9.07621 10.2393 9.07621 10.1445V8.35882C9.07621 8.21811 9.10392 8.07879 9.15776 7.9488C9.21161 7.81881 9.29053 7.70069 9.39002 7.6012C9.48951 7.50171 9.60762 7.42279 9.73762 7.36895C9.86761 7.3151 10.0069 7.28739 10.1476 7.28739H10.1462ZM8.43621 14.4588C8.33415 14.3619 8.21401 14.2861 8.08264 14.2356C7.95127 14.1851 7.81125 14.161 7.67057 14.1647C7.52989 14.1683 7.3913 14.1997 7.26273 14.2569C7.13415 14.3141 7.0181 14.396 6.92121 14.4981C6.82431 14.6002 6.74846 14.7203 6.698 14.8517C6.64753 14.983 6.62343 15.1231 6.62708 15.2637C6.63073 15.4044 6.66205 15.543 6.71926 15.6716C6.77646 15.8002 6.85844 15.9162 6.96049 16.0131C7.82032 16.8293 8.96065 17.2844 10.1462 17.2844C11.3318 17.2844 12.4721 16.8293 13.3319 16.0131C13.5304 15.8158 13.6438 15.5488 13.6479 15.269C13.652 14.9892 13.5465 14.7189 13.3539 14.5159C13.1614 14.3129 12.897 14.1932 12.6174 14.1826C12.3378 14.1719 12.0651 14.2711 11.8576 14.4588C11.396 14.8972 10.7836 15.1417 10.1469 15.1417C9.51025 15.1417 8.89787 14.8972 8.43621 14.4588Z" fill="#52525B"/>
<path fill-rule="evenodd" clip-rule="evenodd" d="M6.92674 1.73156C6.89618 1.44913 6.75471 1.1904 6.53343 1.01225C6.31215 0.834104 6.02919 0.751126 5.74674 0.781561C5.24674 0.835847 4.75103 0.89299 4.26531 0.948704L4.16389 0.961561C3.25532 1.06794 2.40933 1.47814 1.76314 2.12563C1.11695 2.77312 0.708443 3.61993 0.603885 4.5287C0.546743 5.04442 0.486743 5.57156 0.432457 6.10299C0.406248 6.3841 0.492051 6.66419 0.671214 6.88238C0.850378 7.10057 1.10842 7.23923 1.38925 7.26822C1.67009 7.2972 1.95101 7.21418 2.17097 7.03718C2.39092 6.86018 2.53212 6.60352 2.56389 6.32299C2.61674 5.80156 2.67531 5.28442 2.73389 4.76728C2.78442 4.34021 2.97718 3.94256 3.28114 3.63835C3.5851 3.33413 3.98258 3.14103 4.4096 3.09013L4.5096 3.07728C4.99817 3.02013 5.48531 2.96442 5.97674 2.91156C6.25917 2.881 6.5179 2.73953 6.69605 2.51825C6.8742 2.29697 6.95718 2.014 6.92674 1.73156ZM14.5667 0.781561C14.288 0.758462 14.0113 0.845257 13.7957 1.02341C13.5802 1.20156 13.4428 1.45694 13.4129 1.73501C13.3831 2.01308 13.4632 2.2918 13.636 2.51163C13.8089 2.73147 14.0609 2.875 14.3382 2.91156C14.8282 2.96442 15.3153 3.02156 15.8039 3.07728L15.9039 3.09013C16.3312 3.14073 16.729 3.3337 17.0332 3.63794C17.3375 3.94219 17.5304 4.33999 17.581 4.76728C17.6382 5.28442 17.6953 5.80156 17.7496 6.32299C17.7814 6.60352 17.9226 6.86018 18.1425 7.03718C18.3625 7.21418 18.6434 7.2972 18.9242 7.26822C19.2051 7.23923 19.4631 7.10057 19.6423 6.88238C19.8214 6.66419 19.9072 6.3841 19.881 6.10299C19.8267 5.57156 19.7667 5.04585 19.7096 4.5287C19.605 3.61993 19.1965 2.77312 18.5503 2.12563C17.9042 1.47814 17.0582 1.06794 16.1496 0.961561L16.0482 0.948704C15.5625 0.891561 15.0667 0.834418 14.5667 0.781561ZM14.5667 20.2187C14.288 20.2418 14.0113 20.155 13.7957 19.9769C13.5802 19.7987 13.4428 19.5433 13.4129 19.2653C13.3831 18.9872 13.4632 18.7085 13.636 18.4886C13.8089 18.2688 14.0609 18.1253 14.3382 18.0887C14.8282 18.0358 15.3153 17.9787 15.8025 17.923L15.9025 17.9101C16.33 17.8598 16.7281 17.667 17.0327 17.3627C17.3372 17.0585 17.5304 16.6605 17.581 16.233C17.6382 15.7158 17.6953 15.1987 17.7496 14.6773C17.7814 14.3967 17.9226 14.1401 18.1425 13.9631C18.3625 13.7861 18.6434 13.7031 18.9242 13.732C19.2051 13.761 19.4631 13.8997 19.6423 14.1179C19.8214 14.3361 19.9072 14.6162 19.881 14.8973C19.8267 15.4287 19.7667 15.9544 19.7096 16.4716C19.605 17.3803 19.1965 18.2271 18.5503 18.8746C17.9042 19.5221 17.0582 19.9323 16.1496 20.0387L16.0482 20.0516C15.5625 20.1087 15.0667 20.1658 14.5667 20.2187ZM5.74674 20.2187C6.02546 20.2418 6.30215 20.155 6.51774 19.9769C6.73332 19.7987 6.87071 19.5433 6.90055 19.2653C6.93039 18.9872 6.85032 18.7085 6.67744 18.4886C6.50456 18.2688 6.25258 18.1253 5.97531 18.0887C5.48531 18.0358 4.99817 17.9787 4.51103 17.923L4.41103 17.9101C3.98375 17.8595 3.58594 17.6666 3.28169 17.3623C2.97745 17.0581 2.78448 16.6603 2.73389 16.233C2.67531 15.7158 2.61674 15.1987 2.56246 14.6773C2.55307 14.5335 2.51477 14.3931 2.44985 14.2644C2.38494 14.1357 2.29473 14.0215 2.18464 13.9285C2.07455 13.8355 1.94683 13.7657 1.80913 13.7232C1.67142 13.6808 1.52657 13.6665 1.38323 13.6813C1.23988 13.6961 1.101 13.7397 0.974887 13.8094C0.848773 13.8791 0.738022 13.9736 0.649259 14.0871C0.560495 14.2006 0.495544 14.3309 0.458293 14.4701C0.421041 14.6093 0.412254 14.7546 0.432457 14.8973C0.486743 15.4287 0.546743 15.9544 0.603885 16.4716C0.708443 17.3803 1.11695 18.2271 1.76314 18.8746C2.40933 19.5221 3.25532 19.9323 4.16389 20.0387L4.26531 20.0516C4.75103 20.1087 5.24674 20.1658 5.74674 20.2187Z" fill="#A1A1AA"/>
</svg>
