<svg width="295" height="289" viewBox="0 0 295 289" fill="none" xmlns="http://www.w3.org/2000/svg">
<path opacity="0.5" d="M42.9971 245.782C41.6809 251.145 44.9621 256.56 50.3258 257.877C55.6896 259.193 61.1047 255.911 62.4208 250.548L42.9971 245.782ZM40.1486 84.0472L47.5041 90.822L47.5066 90.8192L40.1486 84.0472ZM239.209 166.115L232.691 158.531L232.69 158.532L239.209 166.115ZM184.583 15.7555L176.041 10.5565L176.038 10.5608L184.583 15.7555ZM259.738 46.8871C264.99 48.5955 270.632 45.7228 272.34 40.4708C274.049 35.2188 271.176 29.5763 265.924 27.868L259.738 46.8871ZM43.696 205.46C41.8577 200.252 36.1456 197.52 30.9377 199.358C25.7297 201.197 22.9981 206.909 24.8364 212.117L43.696 205.46ZM51.0256 256.268L41.5958 259.597C42.8627 263.186 46.0572 265.745 49.8363 266.197C53.6154 266.65 57.3239 264.918 59.4026 261.73L51.0256 256.268ZM90.8496 213.495C93.8659 208.868 92.5605 202.672 87.9341 199.656C83.3076 196.64 77.112 197.945 74.0957 202.572L90.8496 213.495ZM52.709 248.165C62.4208 250.548 62.4214 250.545 62.422 250.543C62.4222 250.542 62.4229 250.54 62.4233 250.538C62.4243 250.534 62.4253 250.529 62.4265 250.525C62.4288 250.515 62.4316 250.504 62.4348 250.49C62.4412 250.464 62.4493 250.43 62.459 250.389C62.4784 250.307 62.5044 250.197 62.5362 250.058C62.5997 249.782 62.6865 249.393 62.7911 248.901C63.0002 247.918 63.2807 246.517 63.5877 244.76C64.2009 241.252 64.9251 236.297 65.3944 230.392C66.3253 218.682 66.2942 202.761 62.0788 186.868L42.7472 191.995C46.1716 204.906 46.2884 218.353 45.4573 228.807C45.0457 233.986 44.4114 238.313 43.8864 241.316C43.6243 242.816 43.3908 243.978 43.2281 244.743C43.1468 245.126 43.0833 245.409 43.043 245.585C43.0228 245.672 43.0085 245.733 43.0006 245.767C42.9966 245.783 42.9943 245.793 42.9937 245.795C42.9934 245.797 42.9935 245.796 42.9941 245.794C42.9944 245.793 42.9947 245.791 42.9952 245.789C42.9955 245.788 42.9959 245.786 42.9961 245.786C42.9966 245.784 42.9971 245.782 52.709 248.165ZM62.0788 186.868C60.08 179.332 56.9718 170.101 53.9739 160.803C50.9112 151.305 47.8528 141.416 45.6478 131.848C43.4276 122.214 42.2011 113.429 42.5289 106.085C42.8576 98.723 44.691 93.8762 47.5041 90.822L32.7931 77.2725C25.5894 85.0937 22.9925 95.2571 22.5488 105.193C22.1044 115.147 23.7636 125.947 26.1587 136.34C28.569 146.799 31.8556 157.378 34.9389 166.941C38.087 176.704 40.9261 185.129 42.7472 191.995L62.0788 186.868ZM47.5066 90.8192C50.9434 87.0851 54.8937 85.4587 59.87 85.344C65.2497 85.22 72.0346 86.8943 80.2829 90.5798C96.8602 97.9869 116.031 111.943 136.049 127.239C155.556 142.146 175.924 158.376 193.629 168.675C202.49 173.829 211.494 177.998 220.027 179.583C228.804 181.214 238.113 180.244 245.728 173.698L232.69 158.532C231.092 159.906 228.626 160.839 223.681 159.92C218.492 158.956 211.827 156.123 203.686 151.387C187.387 141.907 168.423 126.807 148.192 111.348C128.47 96.2779 107.496 80.8334 88.4419 72.3197C78.8746 68.0449 68.9726 65.129 59.4093 65.3493C49.4426 65.579 40.1939 69.2314 32.7906 77.2752L47.5066 90.8192ZM245.726 173.699C253.041 167.413 257.501 159.928 259.108 151.524C260.677 143.319 259.365 135.1 256.714 127.406C251.525 112.343 240.275 96.7904 229.336 82.719C217.905 68.0141 206.743 54.8209 199.364 42.8433C195.721 36.9306 193.497 32.0645 192.605 28.1722C191.756 24.4668 192.257 22.3836 193.128 20.9503L176.038 10.5608C171.712 17.6778 171.466 25.464 173.11 32.6391C174.711 39.6271 178.22 46.6525 182.336 53.3341C190.476 66.5452 202.941 81.3522 213.546 94.9939C224.643 109.269 233.839 122.409 237.805 133.921C239.732 139.514 240.174 144.054 239.464 147.768C238.792 151.284 236.937 154.882 232.691 158.531L245.726 173.699ZM193.125 20.9546C193.145 20.9222 193.11 20.9819 193.025 21.0457C192.953 21.1007 192.975 21.0591 193.2 20.9875C193.743 20.8144 195.022 20.612 197.368 20.88C202.152 21.4265 208.661 23.5779 216.39 26.8901C223.977 30.1417 231.86 34.114 239.409 37.8494C246.635 41.4249 254.018 45.0267 259.738 46.8871L265.924 27.868C261.876 26.5513 255.911 23.7002 248.279 19.9238C240.97 16.3071 232.485 12.0284 224.268 8.50705C216.192 5.04629 207.459 1.90266 199.638 1.00918C192.029 0.140014 181.765 1.15133 176.041 10.5565L193.125 20.9546ZM24.8364 212.117L41.5958 259.597L60.4554 252.94L43.696 205.46L24.8364 212.117ZM59.4026 261.73L90.8496 213.495L74.0957 202.572L42.6487 250.807L59.4026 261.73Z" fill="#D6F2FE"/>
<rect width="32.4771" height="124.76" rx="14.2582" transform="matrix(0.132066 -0.991241 -0.991241 -0.132066 211.719 163.453)" fill="#15803D"/>
<rect width="32.4771" height="124.76" rx="14.2582" transform="matrix(0.132066 -0.991241 -0.991241 -0.132066 218.781 164.395)" fill="#22C55E"/>
<rect width="24.5559" height="110.501" rx="12.2779" transform="matrix(0.132066 -0.991241 -0.991241 -0.132066 212.242 159.529)" fill="#16A34A"/>
<path fill-rule="evenodd" clip-rule="evenodd" d="M213.866 147.36C212.97 154.081 206.795 158.804 200.074 157.909L193.319 157.009C199.919 157.72 205.918 153.04 206.799 146.422C207.695 139.701 202.972 133.526 196.25 132.63L117.812 122.18C117.916 122.191 118.02 122.203 118.124 122.217L203.317 133.568C210.038 134.463 214.761 140.638 213.866 147.36Z" fill="#15803D"/>
<path d="M124.906 128.314L123.076 142.055" stroke="#15803D" stroke-width="3.1685" stroke-linecap="round"/>
<path d="M129.453 130.973L118.442 139.394" stroke="#15803D" stroke-width="3.1685" stroke-linecap="round"/>
<path d="M119.742 129.68L128.164 140.69" stroke="#15803D" stroke-width="3.1685" stroke-linecap="round"/>
<path d="M130.688 135.881L116.947 134.05" stroke="#15803D" stroke-width="3.1685" stroke-linecap="round"/>
<path d="M148.461 131.453L146.63 145.194" stroke="#15803D" stroke-width="3.1685" stroke-linecap="round"/>
<path d="M153.008 134.111L141.997 142.533" stroke="#15803D" stroke-width="3.1685" stroke-linecap="round"/>
<path d="M143.297 132.818L151.719 143.829" stroke="#15803D" stroke-width="3.1685" stroke-linecap="round"/>
<path d="M154.242 139.02L140.501 137.189" stroke="#15803D" stroke-width="3.1685" stroke-linecap="round"/>
<path d="M203.117 145.528L185.254 143.148" stroke="#15803D" stroke-width="0.594094" stroke-linecap="round"/>
<path d="M177.992 142.183L160.129 139.803" stroke="#15803D" stroke-width="0.594094" stroke-linecap="round"/>
<path d="M30.4639 158.12C32.1387 156.123 34.2254 154.853 36.43 154.082C40.8552 152.534 45.7298 153.004 48.5589 153.63L49.0615 153.742L49.1396 153.232C49.5774 150.356 50.7543 145.741 53.6476 142.275C55.088 140.549 56.9502 139.112 59.3602 138.307C61.7706 137.502 64.7611 137.318 68.4749 138.15C75.9099 139.816 80.1707 144.522 82.3885 150.132C84.6132 155.759 84.7764 162.295 83.9699 167.538C83.2704 170.809 82.0865 175.354 80.5174 179.796C78.9643 184.193 77.0474 188.444 74.8783 191.268C71.4538 192.28 66.8541 192.69 62.2619 192.712C57.617 192.735 53.0207 192.361 49.7286 191.837C44.546 190.698 38.2658 188.147 33.577 183.998C28.8996 179.858 25.8194 174.146 26.944 166.624C27.5062 162.864 28.7899 160.116 30.4639 158.12Z" fill="#EF4444" stroke="#EF4444" stroke-width="0.963199"/>
<g style="mix-blend-mode:color-dodge">
<path fill-rule="evenodd" clip-rule="evenodd" d="M28.2623 178.099L29.7419 170.166L26.2253 169.511C26.228 169.19 26.2384 168.865 26.2569 168.537L29.9185 169.22L31.844 158.896L29.5669 158.471C29.7868 158.173 30.0149 157.889 30.2504 157.619L32.0206 157.949L32.4598 155.595C32.8232 155.33 33.1959 155.087 33.5761 154.863L32.9675 158.126L43.2911 160.051L44.6797 152.606C45.0095 152.627 45.3317 152.653 45.6451 152.684L44.238 160.228L54.092 162.066L56.0176 151.742L49.1994 150.47C49.276 150.166 49.3597 149.854 49.4511 149.538L56.1942 150.795L58.0321 140.941L54.848 140.347C55.1664 140.069 55.5002 139.804 55.8501 139.554L58.2087 139.994L58.5661 138.078C58.904 137.945 59.2529 137.825 59.6132 137.717L59.1556 140.171L69.4792 142.096L70.2229 138.109C70.5368 138.204 70.8446 138.305 71.1464 138.411L70.4261 142.273L79.2681 143.922C79.586 144.295 79.8881 144.678 80.175 145.071L70.2495 143.22L68.4115 153.074L78.7352 155L80.5011 145.532C80.7677 145.92 81.0202 146.316 81.2591 146.721L79.6821 155.176L84.4639 156.068C84.5165 156.403 84.564 156.739 84.6063 157.074L79.5054 156.123L77.5799 166.447L84.4177 167.722C84.3525 168.025 84.2832 168.339 84.2099 168.663L77.4033 167.394L75.4778 177.717L81.3597 178.814C81.256 179.121 81.1505 179.428 81.0431 179.735L75.3012 178.664L73.4632 188.518L76.8628 189.152C76.6852 189.454 76.5055 189.747 76.3235 190.031L73.2866 189.465L72.7618 192.279C72.4298 192.346 72.0912 192.409 71.7468 192.468L72.3397 189.288L62.0161 187.363L60.9298 193.187C60.6032 193.183 60.2775 193.178 59.953 193.171L61.0692 187.186L50.7456 185.261L49.4393 192.264C49.1302 192.195 48.8173 192.12 48.5012 192.041L49.7987 185.084L39.9447 183.246L38.9948 188.339C38.6975 188.176 38.4019 188.009 38.1084 187.838L38.9978 183.069L30.4889 181.482C30.189 181.112 29.9014 180.732 29.6273 180.342L39.1744 182.123L41.0124 172.269L30.6887 170.343L29.0004 179.395C28.7384 178.974 28.4919 178.542 28.2623 178.099ZM41.189 171.322L30.8653 169.396L32.7909 159.073L43.1145 160.998L41.189 171.322ZM57.141 150.972L58.979 141.118L69.3026 143.043L67.4647 152.897L57.141 150.972ZM74.3543 178.487L72.5163 188.341L62.1927 186.416L64.0307 176.562L74.3543 178.487ZM63.0838 176.385L61.2458 186.239L50.9222 184.314L52.7601 174.46L63.0838 176.385ZM51.8133 174.283L49.9753 184.137L40.1213 182.299L41.9592 172.445L51.8133 174.283ZM51.9899 173.336L42.1359 171.498L44.0614 161.175L53.9154 163.013L51.9899 173.336ZM55.0389 162.242L56.9644 151.919L67.2881 153.844L65.3625 164.168L55.0389 162.242ZM66.3094 164.345L68.2349 154.021L78.5586 155.946L76.633 166.27L66.3094 164.345ZM66.1328 165.291L76.4564 167.217L74.5309 177.541L64.2073 175.615L66.1328 165.291ZM65.1859 165.115L63.2604 175.438L52.9368 173.513L54.8623 163.189L65.1859 165.115Z" fill="#DC2626"/>
</g>
<path d="M41.6548 201.466C41.2483 200.587 39.9287 200.893 39.9511 201.862L40.0249 205.066C40.0331 205.423 39.8272 205.751 39.5016 205.899L36.6022 207.218C35.7146 207.621 36.0235 208.952 36.9981 208.924L40.1818 208.83C40.5394 208.82 40.8687 209.024 41.0188 209.348L42.3637 212.257C42.7703 213.137 44.0898 212.83 44.0675 211.862L43.9937 208.658C43.9854 208.3 44.1913 207.972 44.5169 207.824L47.4164 206.506C48.304 206.102 47.9951 204.771 47.0204 204.8L43.8367 204.893C43.4792 204.904 43.1499 204.7 42.9997 204.375L41.6548 201.466Z" fill="#D4D4D8"/>
<rect x="230.156" y="234.756" width="33.2279" height="56.6578" rx="16.6139" transform="rotate(-102.302 230.156 234.756)" fill="#1D4ED8"/>
<rect x="232.199" y="232.129" width="33.2279" height="56.6578" rx="16.6139" transform="rotate(-102.302 232.199 232.129)" fill="#3B82F6"/>
<circle cx="243.642" cy="212.629" r="3.40799" transform="rotate(-12.3022 243.642 212.629)" fill="#BFDBFE"/>
<circle cx="256.13" cy="209.908" r="3.40799" transform="rotate(-12.3022 256.13 209.908)" fill="#BFDBFE"/>
<circle cx="268.618" cy="207.186" r="3.40799" transform="rotate(-12.3022 268.618 207.186)" fill="#BFDBFE"/>
<path fill-rule="evenodd" clip-rule="evenodd" d="M201.444 163.193L268.927 145.111L275.262 168.752L275.215 168.764C277.137 182.398 233.863 205.338 177.217 220.516C120.572 235.694 71.6253 237.464 66.4728 224.697L66.4323 224.708L66.2924 224.185C66.2729 224.121 66.2545 224.057 66.2371 223.992C66.2197 223.927 66.2034 223.862 66.1882 223.797L60.0977 201.066L127.574 182.986C138.784 178.89 151.083 174.997 164.087 171.512C177.091 168.028 189.689 165.25 201.444 163.193Z" fill="#00B3FF"/>
<ellipse cx="164.504" cy="173.082" rx="108.098" ry="25.2909" transform="rotate(-15 164.504 173.082)" fill="#67CFFE"/>
<ellipse cx="164.504" cy="173.084" rx="90.9657" ry="17.9484" transform="rotate(-15 164.504 173.084)" fill="#67CFFE"/>
<path fill-rule="evenodd" clip-rule="evenodd" d="M248.017 157.51C251.396 154.5 252.967 151.786 252.367 149.548C249.799 139.963 208.378 142.733 159.85 155.736C111.323 168.738 74.0665 187.05 76.635 196.636C77.2343 198.872 79.9495 200.436 84.3769 201.355C84.0918 200.98 83.8899 200.578 83.7748 200.148C81.4203 191.361 116.26 174.391 161.592 162.245C206.924 150.098 245.582 147.374 247.936 156.161C248.051 156.592 248.078 157.042 248.017 157.51Z" fill="#01709E"/>
<rect opacity="0.15" x="214.625" y="183.451" width="16.6284" height="23.4233" transform="rotate(-22.5549 214.625 183.451)" fill="#EFF6FF"/>
<path opacity="0.2" d="M211.466 178.381C211.466 178.381 216.867 176.939 220.102 175.222C223.338 173.504 227.299 171.415 227.299 171.415L230.114 176.94L214.738 183.445L211.466 178.381Z" fill="#EFF6FF"/>
<path opacity="0.3" d="M106.944 181.432L117.676 176.693L124.075 174.219L227.251 171.382L218.992 175.775L211.647 178.38L106.944 181.432Z" fill="#EFF6FF"/>
<path d="M78.8207 75.2096C79.28 73.932 77.652 72.9476 76.734 73.9479L72.1747 78.9154C71.838 79.2823 71.3148 79.413 70.845 79.2474L64.4915 77.0083C63.2193 76.56 62.2434 78.174 63.2314 79.0923L68.1657 83.6786C68.5305 84.0176 68.6579 84.5416 68.4894 85.0103L66.2083 91.3554C65.749 92.633 67.377 93.6174 68.295 92.6172L72.8543 87.6496C73.191 87.2827 73.7142 87.152 74.1839 87.3176L80.5374 89.5567C81.8097 90.005 82.7856 88.391 81.7976 87.4727L76.8633 82.8865C76.4985 82.5474 76.3711 82.0234 76.5396 81.5547L78.8207 75.2096Z" fill="#FACC15"/>
<path d="M290.17 164.616C290.406 163.39 288.794 162.718 288.089 163.749L285.757 167.158C285.496 167.538 285.034 167.727 284.582 167.637L280.556 166.836C279.323 166.591 278.645 168.217 279.687 168.92L283.09 171.216C283.472 171.474 283.663 171.935 283.576 172.388L282.796 176.445C282.56 177.671 284.171 178.343 284.877 177.312L287.209 173.903C287.469 173.522 287.932 173.334 288.384 173.424L292.41 174.225C293.643 174.47 294.32 172.844 293.279 172.141L289.876 169.844C289.494 169.586 289.303 169.125 289.39 168.673L290.17 164.616Z" fill="#FEF08A"/>
<path d="M202.674 79.1771C202.268 78.2977 200.948 78.6039 200.971 79.5725L201.044 82.7765C201.053 83.1341 200.847 83.4622 200.521 83.6102L197.622 84.9286C196.734 85.3322 197.043 86.6632 198.018 86.6346L201.201 86.5412C201.559 86.5308 201.888 86.7346 202.038 87.0593L203.383 89.9683C203.79 90.8477 205.109 90.5414 205.087 89.5729L205.013 86.3688C205.005 86.0112 205.211 85.6832 205.536 85.5352L208.436 84.2167C209.323 83.8131 209.015 82.4822 208.04 82.5108L204.856 82.6041C204.499 82.6146 204.169 82.4108 204.019 82.0861L202.674 79.1771Z" fill="#D4D4D8"/>
</svg>
