<svg width="19" height="15" viewBox="0 0 19 15" fill="none" xmlns="http://www.w3.org/2000/svg">
<path fill-rule="evenodd" clip-rule="evenodd" d="M14.2449 3.56769C14.0566 3.37938 13.7513 3.37936 13.563 3.56769L13.3959 3.73475L14.6974 5.03626C15.2624 5.6012 15.2624 6.51716 14.6974 7.0821C14.1325 7.64703 13.2165 7.64703 12.6516 7.0821L11.3501 5.78056L10.3053 6.82533C10.6812 7.58866 10.8494 8.46343 10.8494 9.38311C10.8494 10.8136 10.4426 12.1355 9.47972 13.0984C8.51689 14.0612 7.19504 14.468 5.76453 14.468C4.33403 14.468 3.01216 14.0612 2.04933 13.0984C1.0865 12.1355 0.679688 10.8136 0.679688 9.38311C0.679688 7.9526 1.0865 6.63075 2.04933 5.66792C3.01216 4.70508 4.33403 4.29827 5.76453 4.29827C6.65027 4.29827 7.49436 4.45424 8.23736 4.80158L11.5171 1.52184C12.8353 0.203655 14.9725 0.203655 16.2907 1.52186L17.616 2.84708C18.1809 3.41203 18.1809 4.32798 17.616 4.89291C17.051 5.45787 16.135 5.45787 15.5701 4.89291L14.2449 3.56769ZM3.57293 9.38311C3.57293 8.48517 3.821 7.98791 4.09516 7.71375C4.36933 7.43959 4.86658 7.19152 5.76453 7.19152C6.66247 7.19152 7.15973 7.43959 7.43389 7.71375C7.70805 7.98791 7.95612 8.48517 7.95612 9.38311C7.95612 10.2811 7.70805 10.7783 7.43389 11.0525C7.15973 11.3266 6.66247 11.5747 5.76453 11.5747C4.86658 11.5747 4.36933 11.3266 4.09516 11.0525C3.821 10.7783 3.57293 10.2811 3.57293 9.38311Z" fill="#A1A1AA"/>
</svg>
