<svg width="119" height="119" viewBox="0 0 119 119" fill="none" xmlns="http://www.w3.org/2000/svg">
<g clip-path="url(#clip0_511_5813)">
<rect x="0.65625" y="0.75" width="118" height="118" rx="59" fill="#EFF6FF"/>
<path fill-rule="evenodd" clip-rule="evenodd" d="M57.7081 42.3359C55.3024 42.3359 52.9196 42.3988 50.5653 42.5074C34.2053 43.2502 19.1367 56.4217 19.1367 73.3188C19.1367 77.4331 19.3767 81.4445 20.5767 85.7302C23.0053 94.3931 29.9767 103.536 42.7196 104.633C43.091 107.393 43.731 109.879 44.7082 111.856C45.971 114.427 48.1596 116.736 51.5024 116.736C53.1024 116.736 54.3424 115.81 54.9881 115.279C55.5882 114.782 56.2053 114.153 56.7139 113.639L57.0167 113.336C57.5417 112.785 58.1197 112.288 58.7424 111.85L58.9481 112.01C59.3024 112.313 59.6339 112.616 60.0224 112.982L61.051 113.925C61.891 114.673 62.9253 115.542 64.091 116.222C65.251 116.907 66.7196 117.496 68.3939 117.496C70.1196 117.496 71.5939 116.845 72.7482 116.107C73.8174 115.394 74.806 114.566 75.6967 113.639C76.1367 113.193 76.4682 112.85 76.7539 112.542L77.3424 111.93C77.5767 112.205 77.8396 112.53 78.1424 112.913L78.2453 113.039C78.7367 113.65 79.3539 114.422 79.9653 115.039C80.3024 115.37 80.7253 115.747 81.2224 116.056C81.877 116.485 82.6397 116.721 83.4224 116.736C86.3539 116.736 88.6853 115.347 90.3539 113.216C91.9482 111.187 92.9482 108.485 93.5653 105.559C95.9024 94.3874 96.6967 83.6959 95.9081 73.1017C94.6053 55.6445 81.3939 43.2617 64.851 42.5074C62.491 42.3988 60.1081 42.3359 57.7081 42.3359ZM58.4224 111.622C58.4172 111.617 58.4114 111.613 58.4053 111.61L58.4224 111.622ZM78.1939 111.159L78.1767 111.17C78.1821 111.166 78.1878 111.162 78.1939 111.159Z" fill="#1D4ED8"/>
<path fill-rule="evenodd" clip-rule="evenodd" d="M59.6964 37.1641C57.2907 37.1641 54.9079 37.2269 52.5536 37.3355C36.1936 38.0783 21.125 51.2498 21.125 68.1469C21.125 72.2612 21.365 76.2726 22.565 80.5583C24.9936 89.2212 31.965 98.3641 44.7079 99.4612C45.0793 102.221 45.7193 104.707 46.6964 106.684C47.9593 109.255 50.1479 111.564 53.4907 111.564C55.0907 111.564 56.3307 110.638 56.9764 110.107C57.5764 109.61 58.1936 108.981 58.7021 108.467L59.005 108.164C59.53 107.613 60.108 107.116 60.7307 106.678L60.9364 106.838C61.2907 107.141 61.6221 107.444 62.0107 107.81L63.0393 108.753C63.8793 109.501 64.9136 110.37 66.0793 111.05C67.2393 111.735 68.7079 112.324 70.3821 112.324C72.1079 112.324 73.5821 111.673 74.7364 110.935C75.8057 110.222 76.7943 109.394 77.685 108.467C78.125 108.021 78.4564 107.678 78.7421 107.37L79.3307 106.758C79.565 107.033 79.8279 107.358 80.1307 107.741L80.2336 107.867C80.725 108.478 81.3421 109.25 81.9536 109.867C82.2907 110.198 82.7136 110.575 83.2107 110.884C83.8653 111.313 84.628 111.549 85.4107 111.564C88.3421 111.564 90.6736 110.175 92.3421 108.044C93.9364 106.015 94.9364 103.313 95.5536 100.387C97.8907 89.2155 98.685 78.5241 97.8964 67.9298C96.5936 50.4726 83.3821 38.0898 66.8393 37.3355C64.4793 37.2269 62.0964 37.1641 59.6964 37.1641ZM60.4107 106.45C60.4055 106.445 60.3997 106.441 60.3936 106.438L60.4107 106.45ZM80.1821 105.987L80.165 105.998C80.1704 105.994 80.1761 105.99 80.1821 105.987Z" fill="#304FFF"/>
<path fill-rule="evenodd" clip-rule="evenodd" d="M64.9085 68.0929C64.9085 67.1457 64.5322 66.2373 63.8624 65.5675C63.1927 64.8978 62.2843 64.5215 61.3371 64.5215C60.3899 64.5215 59.4814 64.8978 58.8117 65.5675C58.1419 66.2373 57.7656 67.1457 57.7656 68.0929V74.3443C57.7656 75.2915 58.1419 76.2 58.8117 76.8697C59.4814 77.5395 60.3899 77.9158 61.3371 77.9158C62.2843 77.9158 63.1927 77.5395 63.8624 76.8697C64.5322 76.2 64.9085 75.2915 64.9085 74.3443V68.0929ZM83.3085 68.0929C83.3085 67.6239 83.2161 67.1595 83.0366 66.7262C82.8571 66.2929 82.5941 65.8992 82.2624 65.5675C81.9308 65.2359 81.5371 64.9728 81.1038 64.7933C80.6705 64.6139 80.2061 64.5215 79.7371 64.5215C79.268 64.5215 78.8036 64.6139 78.3703 64.7933C77.937 64.9728 77.5433 65.2359 77.2117 65.5675C76.88 65.8992 76.617 66.2929 76.4375 66.7262C76.258 67.1595 76.1656 67.6239 76.1656 68.0929V74.3443C76.1656 74.8133 76.258 75.2778 76.4375 75.7111C76.617 76.1444 76.88 76.5381 77.2117 76.8697C77.5433 77.2014 77.937 77.4644 78.3703 77.6439C78.8036 77.8234 79.268 77.9158 79.7371 77.9158C80.2061 77.9158 80.6705 77.8234 81.1038 77.6439C81.5371 77.4644 81.9308 77.2014 82.2624 76.8697C82.5941 76.5381 82.8571 76.1444 83.0366 75.7111C83.2161 75.2778 83.3085 74.8133 83.3085 74.3443V68.0929Z" fill="#EFF6FF"/>
</g>
<defs>
<clipPath id="clip0_511_5813">
<rect x="0.65625" y="0.75" width="118" height="118" rx="59" fill="white"/>
</clipPath>
</defs>
</svg>
