<svg width="21" height="21" viewBox="0 0 21 21" fill="none" xmlns="http://www.w3.org/2000/svg">
<g clip-path="url(#clip0_818_11221)">
<path fill-rule="evenodd" clip-rule="evenodd" d="M16.266 6.14833C16.3103 6.1969 16.3674 6.23405 16.4317 6.25262C17.3587 6.46474 18.1768 7.00708 18.7331 7.77833C19.2837 8.54239 19.529 9.48457 19.421 10.4201C19.3129 11.3557 18.8592 12.2171 18.1488 12.8355C17.2817 13.6012 16.0788 14.1598 14.7088 14.5212C14.3176 14.23 13.8543 14.0512 13.3688 14.004V12.5455C13.3688 11.693 13.0302 10.8754 12.4274 10.2726C11.8246 9.66984 11.007 9.33119 10.1546 9.33119C9.30208 9.33119 8.48451 9.66984 7.88172 10.2726C7.27892 10.8754 6.94028 11.693 6.94028 12.5455V14.0198C6.56313 14.0726 6.19742 14.2083 5.8717 14.4169C4.49599 14.0312 3.29028 13.4612 2.42599 12.7212C1.97576 12.3374 1.60654 11.8678 1.33991 11.3397C1.07329 10.8116 0.914603 10.2356 0.873133 9.64548C0.833779 9.05645 0.912588 8.4655 1.10493 7.90737C1.29727 7.34924 1.59925 6.8352 1.99313 6.39548C2.38885 5.95262 2.86885 5.58976 3.40742 5.32833C3.9468 5.06614 4.53186 4.9109 5.13028 4.87119C5.1918 4.87242 5.25244 4.8565 5.30543 4.82522C5.35841 4.79393 5.40164 4.74851 5.43028 4.69405C5.8483 3.51259 6.66052 2.51118 7.73028 1.85833C8.80777 1.20032 10.0752 0.923569 11.3289 1.07254C12.5826 1.22152 13.7498 1.78756 14.6431 2.67976C15.5226 3.56573 16.0669 4.72969 16.1831 5.97262C16.1926 6.0383 16.2208 6.09984 16.2646 6.14976L16.266 6.14833Z" fill="#A1A1AA"/>
<path fill-rule="evenodd" clip-rule="evenodd" d="M5.14062 4.87155L5.19348 4.87298C5.88348 4.87298 6.5592 5.10155 7.1192 5.45298C7.69063 5.81012 8.07348 6.24869 8.23348 6.58869C8.33955 6.79356 8.52079 6.94942 8.73923 7.02361C8.95767 7.0978 9.19634 7.08456 9.40524 6.98667C9.61413 6.88878 9.77703 6.71383 9.85979 6.4985C9.94255 6.28316 9.93876 6.04415 9.8492 5.83155C9.5092 5.10727 8.85205 4.43155 8.06634 3.93869C7.50535 3.58657 6.88693 3.33563 6.2392 3.19727C5.89131 3.64978 5.61743 4.15463 5.42777 4.69298C5.40133 4.74627 5.36063 4.79117 5.31018 4.8227C5.25974 4.85423 5.20154 4.87114 5.14205 4.87155H5.14062Z" fill="#71717A"/>
<path fill-rule="evenodd" clip-rule="evenodd" d="M9.99721 20.4329C10.1401 20.4686 10.2886 20.4686 10.4301 20.4329C11.3401 20.2058 12.2015 19.6572 12.8358 19.0229C13.4415 18.4158 14.0015 17.5658 14.0015 16.6729C14.0017 16.5371 13.9708 16.403 13.9114 16.2809C13.8519 16.1588 13.7653 16.0518 13.6583 15.9682C13.5513 15.8846 13.4266 15.8265 13.2937 15.7983C13.1608 15.7702 13.0232 15.7727 12.8915 15.8058L11.5815 16.1343V12.5458C11.5815 12.1669 11.431 11.8035 11.1631 11.5356C10.8952 11.2677 10.5318 11.1172 10.1529 11.1172C9.77404 11.1172 9.41068 11.2677 9.14277 11.5356C8.87486 11.8035 8.72435 12.1669 8.72435 12.5458V16.1029L7.53578 15.8058C7.40415 15.7728 7.26672 15.7702 7.13395 15.7983C7.00117 15.8263 6.87655 15.8843 6.76954 15.9678C6.66253 16.0512 6.57595 16.158 6.51638 16.2799C6.45682 16.4019 6.42583 16.5358 6.42578 16.6715C6.42578 17.5643 6.98578 18.4143 7.59292 19.0215C8.22721 19.6558 9.08721 20.2043 9.99721 20.4315V20.4329Z" fill="#52525B"/>
</g>
<defs>
<clipPath id="clip0_818_11221">
<rect width="20" height="20" fill="white" transform="translate(0.15625 0.5)"/>
</clipPath>
</defs>
</svg>
