<svg width="17" height="17" viewBox="0 0 17 17" fill="none" xmlns="http://www.w3.org/2000/svg">
<g clip-path="url(#clip0_818_11686)">
<path fill-rule="evenodd" clip-rule="evenodd" d="M4.16246 3.4352C1.59177 6.00589 1.59178 10.1738 4.16247 12.7445C6.73317 15.3152 10.9011 15.3152 13.4718 12.7445C14.6938 11.5225 15.3351 9.93863 15.3951 8.33806C15.4109 7.9176 15.1102 7.66161 14.8157 7.5837C14.532 7.50871 14.1813 7.5691 13.9346 7.81579C12.5971 9.15327 10.4286 9.15327 9.09117 7.8158C7.7537 6.47832 7.7537 4.30986 9.09117 2.97239C9.33786 2.72569 9.39825 2.37501 9.32326 2.09129C9.24535 1.79678 8.98937 1.49606 8.56887 1.51186C6.96837 1.57188 5.38451 2.21315 4.16246 3.4352Z" fill="#A1A1AA"/>
</g>
<defs>
<clipPath id="clip0_818_11686">
<rect width="16" height="16" fill="white" transform="translate(0.15625 0.75)"/>
</clipPath>
</defs>
</svg>
