<svg width="18" height="19" viewBox="0 0 18 19" fill="none" xmlns="http://www.w3.org/2000/svg">
<path fill-rule="evenodd" clip-rule="evenodd" d="M9.18552 0.107422C7.67605 0.107422 6.22842 0.707053 5.16107 1.7744C4.09372 2.84175 3.49409 4.28939 3.49409 5.79885C3.49409 6.79028 3.3298 7.55599 3.09694 8.14457C3.02552 8.32457 2.8698 8.48314 2.54551 8.69599C2.47837 8.74028 2.39409 8.79171 2.30266 8.84885C2.02837 9.01599 1.67409 9.23314 1.3998 9.47599C0.7998 10.0089 0.5998 10.7617 0.652657 11.4331C0.705515 12.0846 1.00837 12.7617 1.56266 13.1789C1.59948 13.2088 1.63812 13.2365 1.67837 13.2617C1.7498 13.3074 1.84837 13.3631 1.97694 13.4246C2.23409 13.5489 2.6198 13.696 3.18409 13.8389C4.3098 14.1246 6.1698 14.3931 9.18552 14.3931C12.2041 14.3931 14.0627 14.1231 15.1884 13.8389C15.7527 13.696 16.1384 13.5489 16.3955 13.4246C16.5406 13.355 16.6792 13.2728 16.8098 13.1789C17.3641 12.7617 17.6669 12.0846 17.7198 11.4317C17.7741 10.7631 17.5727 10.0089 16.9727 9.47457C16.6904 9.24093 16.3888 9.03161 16.0712 8.84885C15.9891 8.7991 15.9076 8.74815 15.8269 8.69599C15.5012 8.48314 15.3469 8.32457 15.2755 8.14457C15.2377 8.04856 15.2029 7.95137 15.1712 7.85314C14.9865 7.18365 14.888 6.4933 14.8784 5.79885C14.8784 5.05132 14.7311 4.31111 14.445 3.62051C14.1589 2.9299 13.7395 2.30241 13.2109 1.7739C12.6822 1.24538 12.0547 0.826183 11.364 0.540246C10.6733 0.254309 9.93304 0.107234 9.18552 0.107422Z" fill="#8B5CF6"/>
<path fill-rule="evenodd" clip-rule="evenodd" d="M6.75143 16.0139C6.84412 15.9047 6.96751 15.8258 7.10559 15.7876C7.24367 15.7494 7.39005 15.7536 7.52572 15.7996C7.88857 15.9225 8.42286 16.0168 9.18572 16.0168C9.94858 16.0168 10.4829 15.9225 10.8457 15.7996C10.9815 15.7536 11.1279 15.7496 11.266 15.7879C11.4041 15.8262 11.5275 15.9053 11.6201 16.0147C11.7127 16.1241 11.7703 16.2588 11.7853 16.4013C11.8003 16.5439 11.7721 16.6876 11.7043 16.8139C11.4602 17.2696 11.097 17.6506 10.6535 17.9161C10.21 18.1817 9.70268 18.322 9.18572 18.322C8.66876 18.322 8.16148 18.1817 7.71795 17.9161C7.27442 17.6506 6.91125 17.2696 6.66715 16.8139C6.59922 16.6875 6.57093 16.5436 6.58596 16.4009C6.601 16.2582 6.65866 16.1234 6.75143 16.0139Z" fill="#DDD6FE"/>
</svg>
