<svg width="21" height="21" viewBox="0 0 21 21" fill="none" xmlns="http://www.w3.org/2000/svg">
<path fill-rule="evenodd" clip-rule="evenodd" d="M16.0627 0.771484C16.2054 0.771596 16.3466 0.800212 16.4781 0.855654C16.6096 0.911096 16.7287 0.992246 16.8284 1.09434C17.2255 1.49863 18.0569 2.35006 18.7798 3.82291C19.4998 5.2972 20.0884 7.34434 20.0884 10.1415C20.0884 13.5772 18.3584 15.9329 16.2941 17.4858C14.2598 19.0143 11.8641 19.8043 10.3312 20.1958C10.1573 20.2402 9.97511 20.2402 9.80123 20.1958C8.26408 19.8029 5.9098 19.0115 3.91837 17.4786C1.89551 15.9201 0.222656 13.5643 0.222656 10.1415C0.222656 7.34434 0.811228 5.2972 1.53123 3.82434C2.02372 2.81081 2.68397 1.88781 3.48408 1.09434C3.58345 0.992589 3.70208 0.911638 3.83305 0.856207C3.96402 0.800776 4.10472 0.771975 4.24694 0.771484H16.0627Z" fill="#28A4D9"/>
<path fill-rule="evenodd" clip-rule="evenodd" d="M0.580586 0.742576C0.469581 0.829127 0.37672 0.936703 0.307306 1.05916C0.237893 1.18161 0.193288 1.31654 0.176042 1.45624C0.158795 1.59594 0.169244 1.73766 0.206792 1.87332C0.24434 2.00898 0.30825 2.13591 0.394871 2.24686C6.73201 10.3626 10.1234 13.7097 18.4034 20.2554C18.5132 20.3478 18.6404 20.4173 18.7775 20.4596C18.9146 20.5019 19.0587 20.5163 19.2015 20.5018C19.3442 20.4874 19.4826 20.4444 19.6084 20.3755C19.7343 20.3065 19.845 20.213 19.9339 20.1005C20.0229 19.9879 20.0884 19.8587 20.1265 19.7203C20.1646 19.582 20.1745 19.4374 20.1557 19.2952C20.1369 19.153 20.0897 19.016 20.0169 18.8923C19.9441 18.7687 19.8472 18.6609 19.732 18.5754C11.5777 12.1283 8.30773 8.90115 2.08344 0.926862C1.9087 0.703511 1.65255 0.558544 1.37111 0.523732C1.08967 0.488921 0.805908 0.567104 0.582014 0.741148L0.580586 0.742576Z" fill="#D6F2FE"/>
</svg>
