<svg width="12" height="21" viewBox="0 0 12 21" fill="none" xmlns="http://www.w3.org/2000/svg">
<path fill-rule="evenodd" clip-rule="evenodd" d="M6.5022 0.752275C6.95468 0.752275 7.38864 0.932024 7.70859 1.25198C8.02855 1.57193 8.2083 2.00589 8.2083 2.45837V3.72771C9.32857 4.02492 10.3494 4.61541 11.1655 5.43835L11.1928 5.4702L11.2042 5.48157L11.2087 5.48612L11.211 5.4884L9.94169 6.63035L11.2133 5.49295C11.5023 5.83007 11.6485 6.26659 11.6208 6.70977C11.5931 7.15295 11.3937 7.56787 11.065 7.86639C10.7363 8.16491 10.3041 8.32351 9.86031 8.30849C9.41652 8.29346 8.99607 8.10601 8.68828 7.78594L8.6769 7.77229C8.49908 7.60649 8.30294 7.46148 8.09228 7.34008C7.57144 7.03078 6.9671 6.89162 6.36344 6.94199C5.53996 7.01251 5.08045 7.28321 4.84387 7.51752C4.74016 7.61475 4.65725 7.73202 4.60016 7.86222C4.54307 7.99243 4.513 8.13286 4.51175 8.27502C4.51175 8.54117 4.56635 8.63444 4.57545 8.65264C4.58682 8.67084 4.62322 8.72543 4.76198 8.80505C5.1305 9.01433 5.70147 9.13717 6.68418 9.31915L6.782 9.33735C7.59183 9.48521 8.75197 9.70132 9.69146 10.2518C10.2238 10.5657 10.7379 11.0116 11.1109 11.6508C11.484 12.2923 11.6478 13.018 11.6478 13.796C11.6478 14.9993 10.9972 15.9434 10.2602 16.5644C9.67781 17.058 8.96353 17.4242 8.2083 17.6631V19.0439C8.2083 19.4964 8.02855 19.9303 7.70859 20.2503C7.38864 20.5703 6.95468 20.75 6.5022 20.75C6.04971 20.75 5.61576 20.5703 5.29581 20.2503C4.97585 19.9303 4.7961 19.4964 4.7961 19.0439V17.9111C3.46807 17.7087 2.22948 17.1183 1.23605 16.2141C1.06723 16.0638 0.929927 15.8816 0.832125 15.6779C0.734323 15.4741 0.677966 15.253 0.666327 15.0273C0.654688 14.8017 0.687999 14.5759 0.764325 14.3632C0.840651 14.1505 0.958472 13.9551 1.11095 13.7883C1.26342 13.6215 1.44751 13.4867 1.65252 13.3917C1.85754 13.2966 2.0794 13.2432 2.30521 13.2346C2.53103 13.226 2.7563 13.2624 2.96795 13.3415C3.1796 13.4207 3.37342 13.5412 3.53814 13.6959C4.45261 14.5307 5.73787 14.7423 6.85479 14.4966C7.29216 14.4135 7.70417 14.2297 8.05816 13.9597C8.12898 13.9053 8.18914 13.8382 8.23559 13.7618C8.23104 13.5002 8.17872 13.3956 8.16052 13.366C8.14233 13.3342 8.0991 13.275 7.96262 13.1954C7.6032 12.9838 7.0345 12.8542 6.06316 12.6722L5.92668 12.6495C5.1305 12.5016 3.99537 12.2923 3.07863 11.7714C2.48972 11.4487 1.99561 10.9773 1.64551 10.4042C1.27233 9.75774 1.0835 9.02132 1.09956 8.27502C1.09956 6.18221 2.50993 4.41242 4.7961 3.77093V2.4561C4.7961 2.00361 4.97585 1.56966 5.29581 1.2497C5.61576 0.929749 6.04971 0.75 6.5022 0.75V0.752275Z" fill="#304FFF"/>
</svg>
