<svg width="17" height="17" viewBox="0 0 17 17" fill="none" xmlns="http://www.w3.org/2000/svg">
<g clip-path="url(#clip0_818_11680)">
<path d="M16.011 8.75068C16.011 13.2992 13.619 16.0158 9.32645 16.4158C8.69788 16.473 8.18359 15.9552 8.18359 15.3244V2.17811C8.18359 1.54611 8.69788 1.02725 9.32645 1.08668C13.619 1.48668 16.011 4.20096 16.011 8.75068Z" fill="#18181B"/>
<path fill-rule="evenodd" clip-rule="evenodd" d="M3.84318 4.06674C3.67587 4.22071 3.45424 4.30192 3.22705 4.29249C2.99986 4.28306 2.78573 4.18376 2.63175 4.01645C2.47777 3.84914 2.39657 3.62751 2.406 3.40032C2.41067 3.28783 2.43745 3.17736 2.48481 3.07522C2.53218 2.97308 2.59919 2.88126 2.68204 2.80502C3.50804 2.05447 4.48888 1.4946 5.55518 1.16502C5.66249 1.13103 5.77544 1.1185 5.88759 1.12816C5.99974 1.13782 6.10889 1.16948 6.20881 1.22132C6.30872 1.27316 6.39745 1.34417 6.46992 1.4303C6.54239 1.51644 6.59719 1.616 6.63118 1.72331C6.66517 1.83062 6.6777 1.94357 6.66804 2.05572C6.65838 2.16787 6.62673 2.27702 6.57488 2.37693C6.52304 2.47685 6.45203 2.56557 6.3659 2.63805C6.27977 2.71052 6.1802 2.76531 6.0729 2.79931C5.24618 3.05348 4.4854 3.48615 3.84432 4.06674H3.84318ZM0.410038 7.24159C0.333708 7.74081 0.295882 8.24515 0.296895 8.75016C0.296895 9.26902 0.335752 9.77302 0.411181 10.2587C0.449736 10.48 0.573578 10.6772 0.756071 10.8081C0.938565 10.939 1.16513 10.993 1.38705 10.9586C1.60896 10.9241 1.8085 10.804 1.94274 10.624C2.07698 10.4439 2.13521 10.2184 2.10489 9.99588C2.04178 9.58366 2.01045 9.16719 2.01118 8.75016C2.01118 8.31359 2.04318 7.89759 2.10489 7.50445C2.13975 7.2797 2.0839 7.0503 1.94962 6.86673C1.81535 6.68316 1.61365 6.56045 1.38889 6.52559C1.16414 6.49074 0.934749 6.54659 0.751178 6.68086C0.567606 6.81514 0.444895 7.01684 0.410038 7.24159ZM2.63289 13.4907C2.55649 13.5734 2.49712 13.6704 2.45817 13.776C2.41923 13.8816 2.40148 13.9939 2.40594 14.1064C2.4104 14.2189 2.43698 14.3294 2.48415 14.4316C2.53133 14.5339 2.59818 14.6258 2.68089 14.7022C3.50678 15.4542 4.48925 16.0135 5.55747 16.3399C5.66485 16.3736 5.77783 16.3859 5.88997 16.376C6.0021 16.3661 6.11118 16.3343 6.21099 16.2822C6.41257 16.1771 6.56413 15.9962 6.63232 15.7793C6.66609 15.6719 6.67838 15.5589 6.66848 15.4468C6.65859 15.3347 6.6267 15.2256 6.57465 15.1258C6.52259 15.026 6.45139 14.9374 6.3651 14.8651C6.27882 14.7928 6.17914 14.7382 6.07175 14.7045C5.24468 14.454 4.48352 14.023 3.84318 13.4427C3.67624 13.2888 3.45503 13.2074 3.22811 13.2164C3.00119 13.2254 2.78712 13.324 2.63289 13.4907Z" fill="#52525B"/>
</g>
<defs>
<clipPath id="clip0_818_11680">
<rect width="16" height="16" fill="white" transform="translate(0.15625 0.75)"/>
</clipPath>
</defs>
</svg>
