<svg width="17" height="17" viewBox="0 0 17 17" fill="none" xmlns="http://www.w3.org/2000/svg">
<g clip-path="url(#clip0_818_11683)">
<path fill-rule="evenodd" clip-rule="evenodd" d="M8.65513 4.32227C10.3203 4.32227 11.5031 4.83084 12.2334 5.76912C12.9306 6.66398 13.0837 7.79198 13.0837 8.75084C13.0837 9.71084 12.9294 10.8377 12.2334 11.7326C11.5031 12.6708 10.3203 13.1794 8.65513 13.1794C6.98999 13.1794 5.80713 12.6708 5.07685 11.7326C4.37971 10.8377 4.22656 9.70969 4.22656 8.75084C4.22656 7.79084 4.38085 6.66398 5.07685 5.76912C5.80713 4.83084 6.98999 4.32227 8.65513 4.32227Z" fill="#A1A1AA"/>
<path fill-rule="evenodd" clip-rule="evenodd" d="M8.65625 0.75C8.88358 0.75 9.1016 0.840306 9.26234 1.00105C9.42309 1.1618 9.51339 1.37981 9.51339 1.60714V2.20143C9.51339 2.42876 9.42309 2.64677 9.26234 2.80752C9.1016 2.96827 8.88358 3.05857 8.65625 3.05857C8.42892 3.05857 8.2109 2.96827 8.05016 2.80752C7.88941 2.64677 7.79911 2.42876 7.79911 2.20143V1.60714C7.79911 1.37981 7.88941 1.1618 8.05016 1.00105C8.2109 0.840306 8.42892 0.75 8.65625 0.75ZM4.21168 3.09286C4.13321 3.00864 4.03858 2.9411 3.93344 2.89425C3.82829 2.8474 3.71479 2.82221 3.5997 2.82018C3.48462 2.81815 3.3703 2.83932 3.26357 2.88243C3.15684 2.92554 3.05988 2.98971 2.97849 3.0711C2.8971 3.15249 2.83293 3.24944 2.78982 3.35617C2.74671 3.4629 2.72554 3.57722 2.72757 3.69231C2.7296 3.8074 2.7548 3.9209 2.80164 4.02604C2.84849 4.13119 2.91604 4.22581 3.00025 4.30429L3.42082 4.72714C3.58255 4.8832 3.79911 4.9695 4.02385 4.96744C4.24859 4.96538 4.46353 4.87514 4.62238 4.71614C4.78123 4.55714 4.87127 4.34212 4.87312 4.11737C4.87496 3.89263 4.78846 3.67616 4.63225 3.51457L4.21168 3.09286ZM13.8917 12.7729C13.812 12.6933 13.7174 12.6302 13.6133 12.5873C13.5093 12.5443 13.3978 12.5222 13.2852 12.5223C13.1726 12.5224 13.0611 12.5447 12.9571 12.5879C12.8531 12.6311 12.7587 12.6943 12.6791 12.774C12.5996 12.8537 12.5365 12.9483 12.4935 13.0523C12.4505 13.1564 12.4284 13.2679 12.4285 13.3805C12.4287 13.4931 12.4509 13.6046 12.4941 13.7086C12.5373 13.8126 12.6006 13.907 12.6803 13.9866L13.1008 14.4071C13.1793 14.4914 13.2739 14.5589 13.3791 14.6058C13.4842 14.6526 13.5977 14.6778 13.7128 14.6798C13.8279 14.6818 13.9422 14.6607 14.0489 14.6176C14.1557 14.5745 14.2526 14.5103 14.334 14.4289C14.4154 14.3475 14.4796 14.2506 14.5227 14.1438C14.5658 14.0371 14.587 13.9228 14.5849 13.8077C14.5829 13.6926 14.5577 13.5791 14.5109 13.474C14.464 13.3688 14.3965 13.2742 14.3123 13.1957L13.8917 12.7729ZM9.51454 15.2974C9.51454 15.0701 9.42423 14.8521 9.26348 14.6913C9.10274 14.5306 8.88472 14.4403 8.65739 14.4403C8.43007 14.4403 8.21205 14.5306 8.0513 14.6913C7.89056 14.8521 7.80025 15.0701 7.80025 15.2974V15.8917C7.80025 16.119 7.89056 16.3371 8.0513 16.4978C8.21205 16.6586 8.43007 16.7489 8.65739 16.7489C8.88472 16.7489 9.10274 16.6586 9.26348 16.4978C9.42423 16.3371 9.51454 16.119 9.51454 15.8917V15.2974ZM16.6562 8.75C16.6562 8.97733 16.5659 9.19535 16.4052 9.35609C16.2445 9.51684 16.0264 9.60714 15.7991 9.60714H15.2025C14.9752 9.60714 14.7572 9.51684 14.5964 9.35609C14.4357 9.19535 14.3454 8.97733 14.3454 8.75C14.3454 8.52267 14.4357 8.30465 14.5964 8.14391C14.7572 7.98316 14.9752 7.89286 15.2025 7.89286H15.798C15.9106 7.89271 16.0222 7.91477 16.1263 7.95778C16.2305 8.00078 16.3251 8.0639 16.4048 8.1435C16.4845 8.22311 16.5477 8.31765 16.5909 8.42172C16.634 8.52579 16.6562 8.63734 16.6562 8.75ZM2.10768 9.60714C2.33501 9.60714 2.55302 9.51684 2.71377 9.35609C2.87452 9.19535 2.96482 8.97733 2.96482 8.75C2.96482 8.52267 2.87452 8.30465 2.71377 8.14391C2.55302 7.98316 2.33501 7.89286 2.10768 7.89286H1.51339C1.28606 7.89286 1.06805 7.98316 0.907301 8.14391C0.746556 8.30465 0.65625 8.52267 0.65625 8.75C0.65625 8.97733 0.746556 9.19535 0.907301 9.35609C1.06805 9.51684 1.28606 9.60714 1.51339 9.60714H2.10768ZM14.3123 3.09286C14.4728 3.25357 14.5629 3.47143 14.5629 3.69857C14.5629 3.92572 14.4728 4.14357 14.3123 4.30429L13.8917 4.72714C13.7309 4.88794 13.5128 4.97827 13.2854 4.97827C13.058 4.97827 12.8399 4.88794 12.6791 4.72714C12.5183 4.56635 12.428 4.34826 12.428 4.12086C12.428 3.89346 12.5183 3.67537 12.6791 3.51457L13.0997 3.09286C13.2604 2.93234 13.4783 2.84218 13.7054 2.84218C13.9325 2.84218 14.1504 2.93234 14.3111 3.09286H14.3123ZM4.63225 13.9866C4.71187 13.907 4.77503 13.8124 4.81811 13.7084C4.8612 13.6044 4.88338 13.4929 4.88338 13.3803C4.88338 13.2677 4.8612 13.1562 4.81811 13.0522C4.77503 12.9481 4.71187 12.8536 4.63225 12.774C4.55263 12.6944 4.45811 12.6312 4.35408 12.5881C4.25006 12.545 4.13856 12.5229 4.02596 12.5229C3.91337 12.5229 3.80187 12.545 3.69784 12.5881C3.59382 12.6312 3.4993 12.6944 3.41968 12.774L2.99796 13.1946C2.8419 13.3563 2.75561 13.5729 2.75767 13.7976C2.75973 14.0223 2.84997 14.2373 3.00897 14.3961C3.16797 14.555 3.38299 14.645 3.60773 14.6469C3.83247 14.6487 4.04895 14.5622 4.21054 14.406L4.63111 13.9866H4.63225Z" fill="#A1A1AA"/>
</g>
<defs>
<clipPath id="clip0_818_11683">
<rect width="16" height="16" fill="white" transform="translate(0.65625 0.75)"/>
</clipPath>
</defs>
</svg>
