<svg width="21" height="21" viewBox="0 0 21 21" fill="none" xmlns="http://www.w3.org/2000/svg">
<path fill-rule="evenodd" clip-rule="evenodd" d="M8.19408 3.10714C8.94794 2.95994 9.71457 2.88815 10.4827 2.89286C13.1398 2.89286 15.0641 3.63714 16.3255 4.9C17.5884 6.16286 18.3327 8.09 18.3327 10.75C18.3327 12.3557 18.0612 13.6929 17.5684 14.7814L16.5184 14.1743C16.3292 14.0654 16.1113 14.0169 15.8938 14.0352C15.6763 14.0536 15.4696 14.1379 15.3014 14.277C15.1331 14.416 15.0113 14.6031 14.9523 14.8133C14.8933 15.0234 14.8999 15.2466 14.9712 15.4529L15.8298 17.9329C15.9141 18.1762 16.0833 18.381 16.3062 18.5098C16.5292 18.6386 16.7912 18.6828 17.0441 18.6343L19.6198 18.14C19.8347 18.099 20.0319 17.9931 20.1849 17.8367C20.3378 17.6803 20.4393 17.4808 20.4755 17.2651C20.5118 17.0493 20.4811 16.8276 20.3876 16.6298C20.2941 16.432 20.1424 16.2676 19.9527 16.1586L19.4312 15.8586C20.1312 14.4043 20.4741 12.68 20.4741 10.75C20.4741 7.69571 19.6141 5.15857 17.8427 3.38571C16.0712 1.61286 13.5341 0.75 10.4827 0.75C9.52408 0.75 8.61694 0.835714 7.76837 1.00714C7.62914 1.03371 7.49657 1.08763 7.37834 1.16579C7.2601 1.24395 7.15855 1.3448 7.07956 1.46248C7.00057 1.58017 6.94571 1.71236 6.91817 1.85139C6.89063 1.99043 6.89095 2.13355 6.91911 2.27246C6.94727 2.41137 7.00271 2.54331 7.08223 2.66064C7.16174 2.77797 7.26374 2.87836 7.38232 2.956C7.50091 3.03363 7.63372 3.08697 7.77306 3.11291C7.9124 3.13885 8.0555 3.13689 8.19408 3.10714ZM5.14265 3.59286C5.05912 3.32671 4.87507 3.10363 4.62964 2.97105C4.38422 2.83847 4.09676 2.80683 3.82837 2.88286L1.35694 3.35857C1.14245 3.39991 0.945721 3.50582 0.793116 3.66211C0.640511 3.8184 0.539321 4.0176 0.503108 4.23301C0.466895 4.44843 0.497389 4.66976 0.590502 4.86736C0.683616 5.06496 0.834901 5.22937 1.02408 5.33857L1.53694 5.63429C0.834082 7.09 0.488368 8.81571 0.488368 10.75C0.488368 13.8043 1.3498 16.3414 3.12265 18.1143C4.89408 19.8871 7.4298 20.75 10.4827 20.75C11.4355 20.75 12.3355 20.6657 13.1798 20.4971C13.4511 20.4341 13.6872 20.2678 13.838 20.0337C13.9888 19.7995 14.0425 19.5158 13.9877 19.2427C13.9329 18.9697 13.7739 18.7286 13.5444 18.5708C13.3149 18.4129 13.033 18.3507 12.7584 18.3971C12.0086 18.542 11.2463 18.6124 10.4827 18.6071C7.82551 18.6071 5.8998 17.8629 4.63837 16.6C3.37408 15.3357 2.63122 13.41 2.63122 10.75C2.63122 9.14143 2.90265 7.8 3.3998 6.71L4.44122 7.31286C4.63039 7.42174 4.8483 7.47025 5.0658 7.4519C5.28329 7.43355 5.48999 7.34921 5.65824 7.21016C5.82649 7.07112 5.94826 6.88401 6.00726 6.67387C6.06625 6.46373 6.05966 6.24058 5.98837 6.03429L5.14265 3.59286Z" fill="#3B82F6"/>
</svg>
