<svg width="10" height="11" viewBox="0 0 10 11" fill="none" xmlns="http://www.w3.org/2000/svg">
<path fill-rule="evenodd" clip-rule="evenodd" d="M5.63474 4.93987C5.73506 5.04032 5.79141 5.17648 5.79141 5.31845C5.79141 5.46041 5.73506 5.59657 5.63474 5.69702L1.17045 10.1642C1.0689 10.2588 0.934582 10.3103 0.795795 10.3079C0.657009 10.3054 0.524591 10.2492 0.426438 10.151C0.328286 10.0529 0.272063 9.92046 0.269615 9.78168C0.267166 9.64289 0.318683 9.50857 0.413311 9.40702L4.87688 4.93987C4.97733 4.83955 5.11349 4.7832 5.25545 4.7832C5.39742 4.7832 5.53358 4.83955 5.63403 4.93987H5.63474Z" fill="#28A4D9"/>
<path d="M8.28251 1.27828C8.97894 0.978282 9.68251 1.64971 9.37894 2.34543C9.18711 2.77349 8.96512 3.18739 8.71465 3.584C9.11251 3.97328 9.42179 4.29757 9.70894 4.63185C10.2054 5.21043 9.76822 6.08114 9.01179 5.989C8.65035 5.94283 8.29153 5.87798 7.93679 5.79471C7.8659 5.77853 7.79163 5.78639 7.72569 5.81703C7.65974 5.84768 7.60586 5.89938 7.57251 5.964C7.35347 6.39772 7.11195 6.81972 6.84894 7.22828C6.43965 7.859 5.49036 7.70685 5.34894 6.96828C5.25965 6.504 5.21679 6.02543 5.20108 5.41257C4.68944 5.39771 4.17966 5.34422 3.67608 5.25257C2.93322 5.10971 2.76465 4.15257 3.39965 3.74114C3.80068 3.48398 4.21613 3.25003 4.64394 3.04043C4.70984 3.00739 4.76272 2.95315 4.79407 2.88643C4.82542 2.81971 4.83342 2.74439 4.81679 2.67257C4.72908 2.30467 4.66184 1.9322 4.61536 1.55685C4.52751 0.809711 5.38322 0.373997 5.95465 0.863997C6.29751 1.15685 6.62822 1.47828 7.02965 1.899C7.4373 1.67256 7.85538 1.46543 8.28251 1.27828Z" fill="#3AB7ED"/>
<path d="M3.39496 1.0174C3.66373 0.901621 3.93524 1.16074 3.81809 1.42922C3.74406 1.59442 3.65839 1.75415 3.56173 1.90721C3.71527 2.05744 3.83463 2.18259 3.94544 2.31159C4.13702 2.53487 3.96832 2.87089 3.67641 2.83533C3.53692 2.81752 3.39845 2.79249 3.26155 2.76036C3.23419 2.75411 3.20553 2.75714 3.18008 2.76897C3.15463 2.7808 3.13383 2.80075 3.12096 2.82569C3.03643 2.99307 2.94323 3.15592 2.84173 3.31359C2.68378 3.557 2.31743 3.49828 2.26285 3.21326C2.22839 3.03408 2.21186 2.84939 2.20579 2.61288C2.00834 2.60715 1.81161 2.58651 1.61727 2.55114C1.33059 2.496 1.26553 2.12663 1.51059 1.96785C1.66536 1.86861 1.82568 1.77832 1.99078 1.69743C2.01621 1.68469 2.03662 1.66375 2.04872 1.63801C2.06082 1.61226 2.06391 1.58319 2.05749 1.55547C2.02364 1.4135 1.99769 1.26975 1.97975 1.1249C1.94585 0.836567 2.27608 0.668418 2.49661 0.857516C2.62892 0.970535 2.75655 1.09458 2.91147 1.25694C3.06879 1.16955 3.23013 1.08962 3.39496 1.0174Z" fill="#3AB7ED"/>
</svg>
