<svg width="17" height="12" viewBox="0 0 17 12" fill="none" xmlns="http://www.w3.org/2000/svg">
<path fill-rule="evenodd" clip-rule="evenodd" d="M11.3214 3.58626L10.346 2.89369C10.1868 2.78047 10.0555 2.63245 9.96207 2.46089C9.86862 2.28933 9.81551 2.09873 9.80675 1.90357C9.79799 1.7084 9.83382 1.51381 9.91152 1.33457C9.98922 1.15533 10.1067 0.996147 10.2552 0.869119C11.0317 0.203976 12.134 0.0874041 12.9929 0.152547C13.9066 0.224547 14.9163 0.526261 15.7186 1.09712C15.8908 1.2191 16.0303 1.38159 16.1249 1.57026C16.5654 2.45312 16.7094 3.49712 16.6392 4.41083C16.5723 5.26798 16.2877 6.34112 15.5112 7.00626C15.3627 7.13339 15.1872 7.22499 14.998 7.27411C14.8089 7.32323 14.611 7.32858 14.4194 7.28974C14.2279 7.2509 14.0477 7.1689 13.8926 7.04997C13.7375 6.93104 13.6115 6.77832 13.5243 6.6034L12.9929 5.54055C12.4806 5.99384 11.9651 6.44356 11.4466 6.88969C10.8644 7.39389 10.2722 7.88656 9.67059 8.3674C9.44123 8.54986 9.20685 8.72593 8.96773 8.8954C8.76116 9.0471 8.5394 9.17694 8.30602 9.28283C7.9323 9.43712 7.50888 9.49883 7.07516 9.39769C6.71326 9.30993 6.38166 9.12637 6.11516 8.86626C5.7243 8.49426 5.45002 7.97826 5.28202 7.66283L5.26659 7.63712L5.2443 7.59255C5.04373 7.2154 4.91859 6.98055 4.77973 6.8074C4.77189 6.79756 4.76389 6.78785 4.75573 6.77826C4.49878 6.89535 4.25606 7.04144 4.0323 7.21369C3.41707 7.69534 2.84256 8.22685 2.31459 8.80283C1.55073 9.6175 0.830307 10.4718 0.156304 11.3623C0.153628 9.91624 0.249852 8.47172 0.444304 7.03883C1.07516 6.37026 1.79173 5.6794 2.4963 5.15312C2.84945 4.89083 3.23002 4.64569 3.62088 4.4674C3.99802 4.29598 4.48659 4.14169 5.01459 4.18626C5.87688 4.25483 6.44602 4.77255 6.78888 5.20283C7.08545 5.57312 7.3203 6.02055 7.48659 6.33255L7.53802 6.42683L7.66659 6.66512C7.78659 6.57598 7.92373 6.4714 8.07802 6.34798C8.54945 5.97769 9.13745 5.48398 9.77002 4.94055C10.2774 4.50512 10.8072 4.04055 11.3214 3.58626ZM4.69059 6.71312L4.69573 6.71655C4.69387 6.71565 4.69214 6.71449 4.69059 6.71312Z" fill="#18181B" fill-opacity="0.16"/>
</svg>
