<svg width="45" height="44" viewBox="0 0 45 44" fill="none" xmlns="http://www.w3.org/2000/svg">
<g clip-path="url(#clip0_2009_2242)">
<mask id="mask0_2009_2242" style="mask-type:luminance" maskUnits="userSpaceOnUse" x="0" y="0" width="45" height="45">
<path d="M44.1172 0.00585938H0.117188V44.0059H44.1172V0.00585938Z" fill="white"/>
</mask>
<g mask="url(#mask0_2009_2242)">
<path d="M22.1172 44.0059C34.2675 44.0059 44.1172 34.1561 44.1172 22.0059C44.1172 9.8556 34.2675 0.00585938 22.1172 0.00585938C9.96692 0.00585938 0.117188 9.8556 0.117188 22.0059C0.117188 34.1561 9.96692 44.0059 22.1172 44.0059Z" fill="#F7931A"/>
<path d="M31.7862 19.2834C32.2179 16.4014 30.0221 14.8518 27.0218 13.8178L27.9953 9.91273L25.6193 9.32148L24.6706 13.1234C24.0463 12.9666 23.4056 12.8209 22.7662 12.6751L23.7218 8.84848L21.3458 8.25586L20.3723 12.1595C19.8553 12.0412 19.3466 11.9257 18.8543 11.802L18.8571 11.7896L15.5791 10.9715L14.9466 13.5097C14.9466 13.5097 16.7107 13.914 16.6736 13.9388C17.6361 14.1794 17.8093 14.816 17.7804 15.322L16.6722 19.7701C16.7382 19.7866 16.8234 19.8114 16.9197 19.8485L16.6681 19.7866L15.1143 26.0181C14.9961 26.3096 14.6977 26.7483 14.0239 26.5819C14.0487 26.6163 12.2969 26.1515 12.2969 26.1515L11.1172 28.8713L14.2109 29.6426C14.7857 29.787 15.3494 29.9383 15.9036 30.0799L14.9204 34.0289L17.2951 34.6201L18.2686 30.7151C18.9176 30.8898 19.5473 31.052 20.1633 31.206L19.1926 35.0945L21.5686 35.6858L22.5517 31.745C26.6052 32.5123 29.6522 32.2029 30.9351 28.5371C31.9691 25.5864 30.8842 23.8828 28.7516 22.7731C30.3053 22.4156 31.4741 21.394 31.7862 19.2834ZM26.3549 26.8981C25.6221 29.8503 20.6514 28.2539 19.0399 27.8538L20.3462 22.6219C21.9577 23.0248 27.1236 23.8209 26.3549 26.8981ZM27.0906 19.2408C26.4209 21.9261 22.2849 20.5608 20.9443 20.2266L22.1268 15.4829C23.4674 15.817 27.7891 16.4399 27.0906 19.2408Z" fill="white"/>
</g>
</g>
<defs>
<clipPath id="clip0_2009_2242">
<rect width="44" height="44" fill="white" transform="translate(0.117188)"/>
</clipPath>
</defs>
</svg>
