<svg width="21" height="21" viewBox="0 0 21 21" fill="none" xmlns="http://www.w3.org/2000/svg">
<path fill-rule="evenodd" clip-rule="evenodd" d="M6.57412 5.15007C6.09636 5.15007 5.61174 5.18926 5.10101 5.24378C4.85892 5.26959 4.65551 5.47623 4.63139 5.7125C4.57965 6.2193 4.54265 6.70342 4.54265 7.18154C4.54265 7.65968 4.57965 8.14381 4.63139 8.65061C4.65551 8.88688 4.85892 9.09351 5.10101 9.11933C5.61174 9.17385 6.09636 9.21303 6.57412 9.21303C7.0519 9.21303 7.53652 9.17385 8.04725 9.11933C8.28934 9.09351 8.49273 8.88688 8.51687 8.65061C8.56861 8.14381 8.60561 7.65968 8.60561 7.18154C8.60561 6.70342 8.56861 6.2193 8.51687 5.7125C8.49273 5.47623 8.28934 5.26959 8.04725 5.24378C7.53652 5.18926 7.0519 5.15007 6.57412 5.15007ZM4.80302 2.45134C5.351 2.39287 5.94969 2.3418 6.57412 2.3418C7.19857 2.3418 7.79724 2.39287 8.34522 2.45134C9.90129 2.6174 11.151 3.8645 11.3106 5.42723C11.3663 5.97245 11.4139 6.56464 11.4139 7.18154C11.4139 7.79846 11.3663 8.39065 11.3106 8.93587C11.151 10.4986 9.90129 11.7457 8.34522 11.9118C7.79724 11.9702 7.19857 12.0213 6.57412 12.0213C5.94969 12.0213 5.351 11.9702 4.80302 11.9118C3.24695 11.7457 1.99719 10.4986 1.83763 8.93585C1.78197 8.39065 1.73438 7.79846 1.73438 7.18154C1.73438 6.56464 1.78197 5.97245 1.83763 5.42725C1.99719 3.8645 3.24695 2.6174 4.80302 2.45134Z" fill="#3B82F6"/>
<path fill-rule="evenodd" clip-rule="evenodd" d="M3.76742 13.4883C4.5429 13.4883 5.17156 14.1169 5.17156 14.8924V16.3492H6.5757C7.35117 16.3492 7.97983 16.9779 7.97983 17.7534C7.97983 18.5288 7.35117 19.1575 6.5757 19.1575H3.76742C2.99194 19.1575 2.36328 18.5288 2.36328 17.7534V14.8924C2.36328 14.1169 2.99194 13.4883 3.76742 13.4883Z" fill="#3B82F6"/>
<path fill-rule="evenodd" clip-rule="evenodd" d="M17.0561 19.1574C16.2807 19.1574 15.652 18.5289 15.652 17.7532V16.2966H14.2479C13.4724 16.2966 12.8438 15.6679 12.8438 14.8924C12.8438 14.1169 13.4724 13.4883 14.2479 13.4883H17.0561C17.8316 13.4883 18.4603 14.1169 18.4603 14.8924V17.7532C18.4603 18.5289 17.8316 19.1574 17.0561 19.1574Z" fill="#3B82F6"/>
<path fill-rule="evenodd" clip-rule="evenodd" d="M18.5736 10.617C18.5736 11.3925 17.945 12.0212 17.1695 12.0212H14.3612C13.5857 12.0212 12.957 11.3925 12.957 10.617C12.957 9.84153 13.5857 9.21289 14.3612 9.21289H17.1695C17.945 9.21289 18.5736 9.84153 18.5736 10.617Z" fill="#3B82F6"/>
<path fill-rule="evenodd" clip-rule="evenodd" d="M10.6073 19.1263C9.83177 19.1263 9.20312 18.4976 9.20312 17.7221V14.9139C9.20312 14.1384 9.83177 13.5098 10.6073 13.5098C11.3827 13.5098 12.0114 14.1384 12.0114 14.9139V17.7221C12.0114 18.4976 11.3827 19.1263 10.6073 19.1263Z" fill="#3B82F6"/>
<path fill-rule="evenodd" clip-rule="evenodd" d="M17.0561 7.7332C16.2807 7.7332 15.652 7.10453 15.652 6.32906V5.72234H14.2479C13.4724 5.72234 12.8438 5.09368 12.8438 4.3182C12.8438 3.5427 13.4724 2.91406 14.2479 2.91406H17.0561C17.8316 2.91406 18.4603 3.5427 18.4603 4.3182V6.32906C18.4603 7.10453 17.8316 7.7332 17.0561 7.7332Z" fill="#3B82F6"/>
</svg>
