<svg width="18" height="18" viewBox="0 0 18 18" fill="none" xmlns="http://www.w3.org/2000/svg">
<path fill-rule="evenodd" clip-rule="evenodd" d="M14.7192 0.454386C16.0114 0.548964 17.026 1.56358 17.1205 2.85578C17.3396 5.85009 16.7287 11.0356 12.4172 16.1193C11.3608 17.365 9.39105 17.4609 8.32851 16.0647C7.6868 15.2216 6.96904 14.0823 6.52633 12.8115L10.7508 8.58664C11.2375 8.09991 11.2374 7.3108 10.7507 6.82411C10.264 6.33744 9.47484 6.33748 8.98815 6.82421L4.764 11.0488C3.4929 10.6061 2.35359 9.88823 1.51026 9.24642C0.114076 8.1839 0.209951 6.21416 1.45564 5.15773C6.53937 0.846279 11.7248 0.235218 14.7192 0.454386Z" fill="#3B82F6"/>
</svg>
