<svg width="14" height="14" viewBox="0 0 14 14" fill="none" xmlns="http://www.w3.org/2000/svg">
<path d="M6.50904 1.12202C6.06314 0.157544 4.6159 0.493413 4.64037 1.5557L4.72132 5.06979C4.73035 5.46199 4.50454 5.82177 4.14742 5.98416L0.9674 7.43016C-0.00608875 7.87283 0.332689 9.33258 1.40164 9.30123L4.89348 9.19884C5.28562 9.18734 5.6468 9.41088 5.81143 9.76698L7.2865 12.9575C7.7324 13.922 9.17963 13.5861 9.15516 12.5238L9.07422 9.00976C9.06518 8.61755 9.29099 8.25778 9.64812 8.09539L12.8281 6.64938C13.8016 6.20672 13.4628 4.74697 12.3939 4.77831L8.90206 4.88071C8.50992 4.89221 8.14873 4.66866 7.9841 4.31257L6.50904 1.12202Z" fill="#D4D4D8"/>
</svg>
