<svg width="22" height="22" viewBox="0 0 22 22" fill="none" xmlns="http://www.w3.org/2000/svg">
<path d="M17.8508 2.18533C18.3546 0.784113 16.5691 -0.29552 15.5622 0.801489L10.5617 6.24979C10.1924 6.65223 9.61854 6.79551 9.10336 6.61395L2.13501 4.15816C0.739636 3.66641 -0.330743 5.4366 0.752941 6.44384L6.16474 11.4739C6.56485 11.8458 6.70452 12.4205 6.51972 12.9345L4.01789 19.8937C3.51415 21.2949 5.29966 22.3745 6.30651 21.2775L11.307 15.8292C11.6764 15.4268 12.2502 15.2835 12.7654 15.465L19.7337 17.9208C21.1291 18.4126 22.1995 16.6424 21.1158 15.6352L15.704 10.6051C15.3039 10.2332 15.1642 9.65853 15.349 9.14449L17.8508 2.18533Z" fill="#FACC15"/>
</svg>
