<svg width="45" height="44" viewBox="0 0 45 44" fill="none" xmlns="http://www.w3.org/2000/svg">
<g clip-path="url(#clip0_2009_2413)">
<path d="M22.1172 44C34.3089 44 44.1172 34.1917 44.1172 22C44.1172 9.80826 34.3089 0 22.1172 0C9.92545 0 0.117188 9.80826 0.117188 22C0.117188 34.1917 9.92545 44 22.1172 44Z" fill="#2775CA"/>
<path d="M28.166 25.4836C28.166 22.2754 26.241 21.1754 22.391 20.7171C19.641 20.3504 19.091 19.6171 19.091 18.3336C19.091 17.0501 20.0078 16.2253 21.841 16.2253C23.491 16.2253 24.4077 16.7753 24.866 18.1504C24.9577 18.4254 25.2327 18.6086 25.5077 18.6086H26.9742C27.341 18.6086 27.616 18.3336 27.616 17.9671V17.8754C27.2492 15.8586 25.5992 14.3003 23.491 14.1171V11.9171C23.491 11.5503 23.216 11.2753 22.7578 11.1836H21.3828C21.016 11.1836 20.741 11.4586 20.6493 11.9171V14.0253C17.8993 14.3921 16.1578 16.2253 16.1578 18.5171C16.1578 21.5421 17.9911 22.7336 21.841 23.1921C24.4077 23.6504 25.2327 24.2004 25.2327 25.6671C25.2327 27.1339 23.9493 28.1421 22.2078 28.1421C19.8243 28.1421 18.9993 27.1336 18.7243 25.7586C18.6328 25.3921 18.3578 25.2086 18.0828 25.2086H16.5243C16.1578 25.2086 15.8828 25.4836 15.8828 25.8504V25.9421C16.2493 28.2336 17.7161 29.8836 20.741 30.3421V32.5421C20.741 32.9087 21.016 33.1837 21.4743 33.2754H22.8493C23.216 33.2754 23.491 33.0004 23.5827 32.5421V30.3421C26.3327 29.8836 28.166 27.9586 28.166 25.4836Z" fill="white"/>
<path d="M17.444 35.1075C10.294 32.541 6.62724 24.566 9.28572 17.5075C10.6607 13.6575 13.6857 10.7243 17.444 9.34928C17.8107 9.16602 17.994 8.89102 17.994 8.43253V7.14928C17.994 6.78254 17.8107 6.50754 17.444 6.41602C17.3522 6.41602 17.169 6.41602 17.0772 6.50754C8.36898 9.25753 3.60223 18.516 6.35223 27.2243C8.00223 32.3575 11.944 36.2993 17.0772 37.9493C17.444 38.1325 17.8107 37.9493 17.9022 37.5825C17.994 37.491 17.994 37.3993 17.994 37.216V35.9325C17.994 35.6575 17.719 35.291 17.444 35.1075ZM27.1607 6.50754C26.794 6.32428 26.4272 6.50754 26.3357 6.87428C26.244 6.96602 26.244 7.05754 26.244 7.24102V8.52428C26.244 8.89102 26.519 9.25754 26.794 9.44102C33.944 12.0075 37.6107 19.9825 34.9522 27.041C33.5772 30.891 30.5522 33.8243 26.794 35.1993C26.4272 35.3825 26.244 35.6575 26.244 36.116V37.3993C26.244 37.766 26.4272 38.041 26.794 38.1325C26.8857 38.1325 27.069 38.1325 27.1607 38.041C35.869 35.291 40.6357 26.0325 37.8857 17.3243C36.2357 12.0993 32.2022 8.15754 27.1607 6.50754Z" fill="white"/>
</g>
<defs>
<clipPath id="clip0_2009_2413">
<rect width="44" height="44" fill="white" transform="translate(0.117188)"/>
</clipPath>
</defs>
</svg>
