<svg width="45" height="44" viewBox="0 0 45 44" fill="none" xmlns="http://www.w3.org/2000/svg">
<g clip-path="url(#clip0_2009_2419)">
<path d="M22.1172 44C34.2675 44 44.1172 34.1503 44.1172 22C44.1172 9.84974 34.2675 0 22.1172 0C9.96692 0 0.117188 9.84974 0.117188 22C0.117188 34.1503 9.96692 44 22.1172 44Z" fill="#50AF95"/>
<g clip-path="url(#clip1_2009_2419)">
<path fill-rule="evenodd" clip-rule="evenodd" d="M12.5305 11.1291L7.01486 22.7007C6.99387 22.7438 6.98722 22.7924 6.99588 22.8395C7.00454 22.8866 7.02806 22.9297 7.06299 22.9624L21.9594 37.2196C22.0017 37.2601 22.0581 37.2828 22.1167 37.2828C22.1753 37.2828 22.2317 37.2601 22.274 37.2196L37.1704 22.9633C37.2053 22.9305 37.2288 22.8875 37.2375 22.8404C37.2462 22.7933 37.2395 22.7447 37.2185 22.7016L31.7029 11.13C31.6851 11.0911 31.6565 11.0582 31.6204 11.0351C31.5844 11.0121 31.5425 10.9999 31.4997 11H12.7355C12.6925 10.9995 12.6503 11.0114 12.6139 11.0343C12.5775 11.0572 12.5486 11.0901 12.5305 11.1291Z" fill="white"/>
<path fill-rule="evenodd" clip-rule="evenodd" d="M24.0324 23.8881C23.9255 23.8962 23.3729 23.9291 22.1404 23.9291C21.1601 23.9291 20.464 23.8997 20.2198 23.8881C16.4314 23.7217 13.6036 23.063 13.6036 22.2743C13.6036 21.4857 16.4314 20.8279 20.2198 20.6588V23.2321C20.4676 23.2499 21.177 23.2918 22.1573 23.2918C23.3337 23.2918 23.9228 23.2428 24.0288 23.233V20.6605C27.8093 20.8288 30.6308 21.4875 30.6308 22.2743C30.6308 23.0612 27.8102 23.7199 24.0288 23.8872L24.0324 23.8881ZM24.0324 20.3944V18.0916H29.3083V14.5801H14.9439V18.0916H20.219V20.3935C15.9314 20.5902 12.707 21.4385 12.707 22.455C12.707 23.4716 15.9314 24.319 20.219 24.5166V31.8957H24.0315V24.5139C28.3093 24.3172 31.5283 23.4698 31.5283 22.4541C31.5283 21.4385 28.3119 20.5911 24.0315 20.3935L24.0324 20.3944Z" fill="#50AF95"/>
</g>
</g>
<defs>
<clipPath id="clip0_2009_2419">
<rect width="44" height="44" fill="white" transform="translate(0.117188)"/>
</clipPath>
<clipPath id="clip1_2009_2419">
<rect width="30.25" height="26.2828" fill="white" transform="translate(6.99219 11)"/>
</clipPath>
</defs>
</svg>
