<svg width="25" height="25" viewBox="0 0 25 25" fill="none" xmlns="http://www.w3.org/2000/svg">
<g clip-path="url(#clip0_818_10069)">
<path d="M6.21094 18.6995C6.21094 20.0589 7.27208 21.1903 8.61094 21.4303C9.98579 21.6789 11.4669 21.9669 14.9024 21.9669C18.3361 21.9669 19.8155 21.6789 21.1938 21.4303C22.5309 21.1903 23.5904 20.0589 23.5904 18.6995V10.7932C23.5904 9.61033 22.7847 8.59033 21.6155 8.41376C19.3922 8.08813 17.1477 7.92769 14.9007 7.93376C11.4669 7.93376 9.98579 8.22347 8.60922 8.47033C7.27208 8.71033 6.21094 9.84176 6.21094 11.2012V18.6995Z" fill="#DDD6FE"/>
<path fill-rule="evenodd" clip-rule="evenodd" d="M3.11875 16.0278C1.77989 15.7878 0.71875 14.6564 0.71875 13.297V5.79868C0.71875 4.43925 1.77989 3.30782 3.11875 3.06782L3.26104 3.04211C4.59818 2.80039 6.09475 2.53125 9.41018 2.53125C12.2816 2.53125 14.6045 2.78154 16.1233 3.01125C17.2925 3.18782 18.0999 4.20782 18.0999 5.39068V5.89296C17.0338 5.82534 15.9658 5.79161 14.8976 5.79182C11.3936 5.79182 9.77018 6.08325 8.34904 6.34039L8.22732 6.36268C5.99704 6.76382 4.06675 8.68211 4.06675 11.2021V16.1941C3.78389 16.1478 3.51989 16.0998 3.26104 16.0535L3.11875 16.0278Z" fill="#8B5CF6"/>
<path fill-rule="evenodd" clip-rule="evenodd" d="M23.5904 11.8438H6.21094V13.9866H23.5904V11.8438ZM17.1532 17.0929C16.8691 17.0929 16.5965 17.2058 16.3956 17.4067C16.1947 17.6076 16.0818 17.8802 16.0818 18.1643C16.0818 18.4485 16.1947 18.721 16.3956 18.9219C16.5965 19.1229 16.8691 19.2357 17.1532 19.2357H20.0967C20.3808 19.2357 20.6533 19.1229 20.8543 18.9219C21.0552 18.721 21.1681 18.4485 21.1681 18.1643C21.1681 17.8802 21.0552 17.6076 20.8543 17.4067C20.6533 17.2058 20.3808 17.0929 20.0967 17.0929H17.1532Z" fill="#8B5CF6"/>
</g>
<defs>
<clipPath id="clip0_818_10069">
<rect width="24" height="24" fill="white" transform="translate(0.15625 0.25)"/>
</clipPath>
</defs>
</svg>
